{
    "header": {
      "name": "",
      "ppq": 480,
      "meta": [
        {
          "type": "keySignature",
          "ticks": 0
        },
        {
          "type": "portPrefix",
          "ticks": 0
        }
      ],
      "tempos": [
        {
          "ticks": 0,
          "bpm": 60
        },
        {
          "ticks": 240,
          "bpm": 172.00010320006191
        }
      ],
      "timeSignatures": [
        {
          "ticks": 0,
          "timeSignature": [
            1,
            8
          ],
          "measures": 0
        },
        {
          "ticks": 240,
          "timeSignature": [
            4,
            4
          ],
          "measures": 0.25
        }
      ]
    },
    "tracks": [
      {
        "name": "",
        "channel": 0,
        "instrument": {
          "number": 0,
          "name": "acoustic grand piano",
          "family": "piano"
        },
        "notes": [
          {
            "time": 0.5,
            "midi": 37,
            "name": "C#2",
            "velocity": 0.7874015748031497,
            "duration": 0.33066840625000005,
            "ticks": 240,
            "durationTicks": 455
          },
          {
            "time": 0.732558,
            "midi": 66,
            "name": "F#4",
            "velocity": 0.6299212598425197,
            "duration": 0.10973830624999992,
            "ticks": 560,
            "durationTicks": 151
          },
          {
            "time": 1.081395,
            "midi": 49,
            "name": "C#3",
            "velocity": 0.7874015748031497,
            "duration": 0.10973830624999992,
            "ticks": 1040,
            "durationTicks": 151
          },
          {
            "time": 1.1976740000000001,
            "midi": 66,
            "name": "F#4",
            "velocity": 0.6299212598425197,
            "duration": 0.3306684062499998,
            "ticks": 1200,
            "durationTicks": 455
          },
          {
            "time": 1.546511,
            "midi": 37,
            "name": "C#2",
            "velocity": 0.7874015748031497,
            "duration": 0.33066840625000005,
            "ticks": 1680,
            "durationTicks": 455
          },
          {
            "time": 1.779069,
            "midi": 66,
            "name": "F#4",
            "velocity": 0.6299212598425197,
            "duration": 0.10973830625000014,
            "ticks": 2000,
            "durationTicks": 151
          },
          {
            "time": 2.1279060000000003,
            "midi": 49,
            "name": "C#3",
            "velocity": 0.7874015748031497,
            "duration": 0.1097383062499997,
            "ticks": 2480,
            "durationTicks": 151
          },
          {
            "time": 2.244185,
            "midi": 66,
            "name": "F#4",
            "velocity": 0.6299212598425197,
            "duration": 0.3306684062500005,
            "ticks": 2640,
            "durationTicks": 455
          },
          {
            "time": 2.593022,
            "midi": 37,
            "name": "C#2",
            "velocity": 0.7874015748031497,
            "duration": 0.6620635562500001,
            "ticks": 3120,
            "durationTicks": 911
          },
          {
            "time": 2.82558,
            "midi": 66,
            "name": "F#4",
            "velocity": 0.6299212598425197,
            "duration": 0.4411334562500002,
            "ticks": 3440,
            "durationTicks": 607
          },
          {
            "time": 2.941859,
            "midi": 49,
            "name": "C#3",
            "velocity": 0.7874015748031497,
            "duration": 0.33066840625000005,
            "ticks": 3600,
            "durationTicks": 455
          },
          {
            "time": 3.290696,
            "midi": 37,
            "name": "C#2",
            "velocity": 0.7874015748031497,
            "duration": 0.3306684062499996,
            "ticks": 4080,
            "durationTicks": 455
          },
          {
            "time": 3.5232539999999997,
            "midi": 65,
            "name": "F4",
            "velocity": 0.6299212598425197,
            "duration": 0.10973830625000014,
            "ticks": 4400,
            "durationTicks": 151
          },
          {
            "time": 3.8720909999999997,
            "midi": 49,
            "name": "C#3",
            "velocity": 0.7874015748031497,
            "duration": 0.10973830625000014,
            "ticks": 4880,
            "durationTicks": 151
          },
          {
            "time": 3.98837,
            "midi": 65,
            "name": "F4",
            "velocity": 0.6299212598425197,
            "duration": 0.3306684062499996,
            "ticks": 5040,
            "durationTicks": 455
          },
          {
            "time": 4.337207,
            "midi": 37,
            "name": "C#2",
            "velocity": 0.7874015748031497,
            "duration": 0.33066840625000005,
            "ticks": 5520,
            "durationTicks": 455
          },
          {
            "time": 4.569765,
            "midi": 65,
            "name": "F4",
            "velocity": 0.6299212598425197,
            "duration": 0.7725286062499999,
            "ticks": 5840,
            "durationTicks": 1063
          },
          {
            "time": 5.034881,
            "midi": 49,
            "name": "C#3",
            "velocity": 0.7874015748031497,
            "duration": 0.33066840624999916,
            "ticks": 6480,
            "durationTicks": 455
          },
          {
            "time": 5.383718,
            "midi": 65,
            "name": "F4",
            "velocity": 0.6299212598425197,
            "duration": 0.6620635562500006,
            "ticks": 6960,
            "durationTicks": 911
          },
          {
            "time": 5.616276,
            "midi": 49,
            "name": "C#3",
            "velocity": 0.7874015748031497,
            "duration": 0.1097383062499997,
            "ticks": 7280,
            "durationTicks": 151
          },
          {
            "time": 5.7325550000000005,
            "midi": 37,
            "name": "C#2",
            "velocity": 0.7874015748031497,
            "duration": 0.33066840624999916,
            "ticks": 7440,
            "durationTicks": 455
          },
          {
            "time": 6.081392,
            "midi": 54,
            "name": "F#3",
            "velocity": 0.6299212598425197,
            "duration": 0.6620635562500006,
            "ticks": 7920,
            "durationTicks": 911
          },
          {
            "time": 6.081392,
            "midi": 58,
            "name": "A#3",
            "velocity": 0.6299212598425197,
            "duration": 0.6620635562500006,
            "ticks": 7920,
            "durationTicks": 911
          },
          {
            "time": 6.081392,
            "midi": 61,
            "name": "C#4",
            "velocity": 0.6299212598425197,
            "duration": 0.6620635562500006,
            "ticks": 7920,
            "durationTicks": 911
          },
          {
            "time": 6.779066,
            "midi": 58,
            "name": "A#3",
            "velocity": 0.6299212598425197,
            "duration": 0.33066840625000005,
            "ticks": 8880,
            "durationTicks": 455
          },
          {
            "time": 6.779066,
            "midi": 61,
            "name": "C#4",
            "velocity": 0.6299212598425197,
            "duration": 0.33066840625000005,
            "ticks": 8880,
            "durationTicks": 455
          },
          {
            "time": 7.47674,
            "midi": 54,
            "name": "F#3",
            "velocity": 0.6299212598425197,
            "duration": 0.6620635562499997,
            "ticks": 9840,
            "durationTicks": 911
          },
          {
            "time": 7.47674,
            "midi": 59,
            "name": "B3",
            "velocity": 0.6299212598425197,
            "duration": 0.6620635562499997,
            "ticks": 9840,
            "durationTicks": 911
          },
          {
            "time": 7.47674,
            "midi": 63,
            "name": "D#4",
            "velocity": 0.6299212598425197,
            "duration": 0.6620635562499997,
            "ticks": 9840,
            "durationTicks": 911
          },
          {
            "time": 8.174414,
            "midi": 59,
            "name": "B3",
            "velocity": 0.6299212598425197,
            "duration": 0.33066840625000005,
            "ticks": 10800,
            "durationTicks": 455
          },
          {
            "time": 8.174414,
            "midi": 63,
            "name": "D#4",
            "velocity": 0.6299212598425197,
            "duration": 0.33066840625000005,
            "ticks": 10800,
            "durationTicks": 455
          },
          {
            "time": 8.872088,
            "midi": 59,
            "name": "B3",
            "velocity": 0.6299212598425197,
            "duration": 0.6620635562500006,
            "ticks": 11760,
            "durationTicks": 911
          },
          {
            "time": 8.872088,
            "midi": 63,
            "name": "D#4",
            "velocity": 0.6299212598425197,
            "duration": 0.6620635562500006,
            "ticks": 11760,
            "durationTicks": 911
          },
          {
            "time": 8.872088,
            "midi": 66,
            "name": "F#4",
            "velocity": 0.6299212598425197,
            "duration": 0.6620635562500006,
            "ticks": 11760,
            "durationTicks": 911
          },
          {
            "time": 9.569762,
            "midi": 63,
            "name": "D#4",
            "velocity": 0.6299212598425197,
            "duration": 0.33066840625000005,
            "ticks": 12720,
            "durationTicks": 455
          },
          {
            "time": 9.569762,
            "midi": 66,
            "name": "F#4",
            "velocity": 0.6299212598425197,
            "duration": 0.33066840625000005,
            "ticks": 12720,
            "durationTicks": 455
          },
          {
            "time": 10.267436,
            "midi": 56,
            "name": "G#3",
            "velocity": 0.6299212598425197,
            "duration": 0.6620635562500006,
            "ticks": 13680,
            "durationTicks": 911
          },
          {
            "time": 10.267436,
            "midi": 58,
            "name": "A#3",
            "velocity": 0.6299212598425197,
            "duration": 0.6620635562500006,
            "ticks": 13680,
            "durationTicks": 911
          },
          {
            "time": 10.267436,
            "midi": 61,
            "name": "C#4",
            "velocity": 0.6299212598425197,
            "duration": 0.6620635562500006,
            "ticks": 13680,
            "durationTicks": 911
          },
          {
            "time": 10.965110000000001,
            "midi": 58,
            "name": "A#3",
            "velocity": 0.6299212598425197,
            "duration": 0.33066840625000005,
            "ticks": 14640,
            "durationTicks": 455
          },
          {
            "time": 10.965110000000001,
            "midi": 61,
            "name": "C#4",
            "velocity": 0.6299212598425197,
            "duration": 0.33066840625000005,
            "ticks": 14640,
            "durationTicks": 455
          },
          {
            "time": 11.662784,
            "midi": 54,
            "name": "F#3",
            "velocity": 0.6299212598425197,
            "duration": 0.6620635562500006,
            "ticks": 15600,
            "durationTicks": 911
          },
          {
            "time": 11.662784,
            "midi": 58,
            "name": "A#3",
            "velocity": 0.6299212598425197,
            "duration": 0.6620635562500006,
            "ticks": 15600,
            "durationTicks": 911
          },
          {
            "time": 11.662784,
            "midi": 61,
            "name": "C#4",
            "velocity": 0.6299212598425197,
            "duration": 0.6620635562500006,
            "ticks": 15600,
            "durationTicks": 911
          },
          {
            "time": 12.360458,
            "midi": 58,
            "name": "A#3",
            "velocity": 0.6299212598425197,
            "duration": 0.33066840625000005,
            "ticks": 16560,
            "durationTicks": 455
          },
          {
            "time": 12.360458,
            "midi": 61,
            "name": "C#4",
            "velocity": 0.6299212598425197,
            "duration": 0.33066840625000005,
            "ticks": 16560,
            "durationTicks": 455
          },
          {
            "time": 13.058132,
            "midi": 54,
            "name": "F#3",
            "velocity": 0.6299212598425197,
            "duration": 0.6620635562500006,
            "ticks": 17520,
            "durationTicks": 911
          },
          {
            "time": 13.058132,
            "midi": 59,
            "name": "B3",
            "velocity": 0.6299212598425197,
            "duration": 0.6620635562500006,
            "ticks": 17520,
            "durationTicks": 911
          },
          {
            "time": 13.058132,
            "midi": 63,
            "name": "D#4",
            "velocity": 0.6299212598425197,
            "duration": 0.6620635562500006,
            "ticks": 17520,
            "durationTicks": 911
          },
          {
            "time": 13.755806,
            "midi": 59,
            "name": "B3",
            "velocity": 0.6299212598425197,
            "duration": 0.33066840625000005,
            "ticks": 18480,
            "durationTicks": 455
          },
          {
            "time": 13.755806,
            "midi": 63,
            "name": "D#4",
            "velocity": 0.6299212598425197,
            "duration": 0.33066840625000005,
            "ticks": 18480,
            "durationTicks": 455
          },
          {
            "time": 14.45348,
            "midi": 59,
            "name": "B3",
            "velocity": 0.6299212598425197,
            "duration": 0.6620635562500006,
            "ticks": 19440,
            "durationTicks": 911
          },
          {
            "time": 14.45348,
            "midi": 63,
            "name": "D#4",
            "velocity": 0.6299212598425197,
            "duration": 0.6620635562500006,
            "ticks": 19440,
            "durationTicks": 911
          },
          {
            "time": 14.45348,
            "midi": 66,
            "name": "F#4",
            "velocity": 0.6299212598425197,
            "duration": 0.6620635562500006,
            "ticks": 19440,
            "durationTicks": 911
          },
          {
            "time": 15.151154,
            "midi": 63,
            "name": "D#4",
            "velocity": 0.6299212598425197,
            "duration": 0.33066840625000005,
            "ticks": 20400,
            "durationTicks": 455
          },
          {
            "time": 15.151154,
            "midi": 66,
            "name": "F#4",
            "velocity": 0.6299212598425197,
            "duration": 0.33066840625000005,
            "ticks": 20400,
            "durationTicks": 455
          },
          {
            "time": 15.848828000000001,
            "midi": 59,
            "name": "B3",
            "velocity": 0.6299212598425197,
            "duration": 0.6620635562500006,
            "ticks": 21360,
            "durationTicks": 911
          },
          {
            "time": 15.848828000000001,
            "midi": 61,
            "name": "C#4",
            "velocity": 0.6299212598425197,
            "duration": 0.6620635562500006,
            "ticks": 21360,
            "durationTicks": 911
          },
          {
            "time": 15.848828000000001,
            "midi": 68,
            "name": "G#4",
            "velocity": 0.6299212598425197,
            "duration": 0.6620635562500006,
            "ticks": 21360,
            "durationTicks": 911
          },
          {
            "time": 16.546502,
            "midi": 61,
            "name": "C#4",
            "velocity": 0.6299212598425197,
            "duration": 0.33066840624999827,
            "ticks": 22320,
            "durationTicks": 455
          },
          {
            "time": 16.546502,
            "midi": 66,
            "name": "F#4",
            "velocity": 0.6299212598425197,
            "duration": 0.33066840624999827,
            "ticks": 22320,
            "durationTicks": 455
          },
          {
            "time": 17.244176,
            "midi": 54,
            "name": "F#3",
            "velocity": 0.6299212598425197,
            "duration": 0.6620635562500006,
            "ticks": 23280,
            "durationTicks": 911
          },
          {
            "time": 17.244176,
            "midi": 58,
            "name": "A#3",
            "velocity": 0.6299212598425197,
            "duration": 0.6620635562500006,
            "ticks": 23280,
            "durationTicks": 911
          },
          {
            "time": 17.244176,
            "midi": 61,
            "name": "C#4",
            "velocity": 0.6299212598425197,
            "duration": 0.6620635562500006,
            "ticks": 23280,
            "durationTicks": 911
          },
          {
            "time": 17.94185,
            "midi": 58,
            "name": "A#3",
            "velocity": 0.6299212598425197,
            "duration": 0.3306684062500018,
            "ticks": 24240,
            "durationTicks": 455
          },
          {
            "time": 17.94185,
            "midi": 61,
            "name": "C#4",
            "velocity": 0.6299212598425197,
            "duration": 0.3306684062500018,
            "ticks": 24240,
            "durationTicks": 455
          },
          {
            "time": 18.639524,
            "midi": 54,
            "name": "F#3",
            "velocity": 0.6299212598425197,
            "duration": 0.6620635562500006,
            "ticks": 25200,
            "durationTicks": 911
          },
          {
            "time": 18.639524,
            "midi": 59,
            "name": "B3",
            "velocity": 0.6299212598425197,
            "duration": 0.6620635562500006,
            "ticks": 25200,
            "durationTicks": 911
          },
          {
            "time": 18.639524,
            "midi": 63,
            "name": "D#4",
            "velocity": 0.6299212598425197,
            "duration": 0.6620635562500006,
            "ticks": 25200,
            "durationTicks": 911
          },
          {
            "time": 19.337198,
            "midi": 59,
            "name": "B3",
            "velocity": 0.6299212598425197,
            "duration": 0.33066840624999827,
            "ticks": 26160,
            "durationTicks": 455
          },
          {
            "time": 19.337198,
            "midi": 63,
            "name": "D#4",
            "velocity": 0.6299212598425197,
            "duration": 0.33066840624999827,
            "ticks": 26160,
            "durationTicks": 455
          },
          {
            "time": 20.034872,
            "midi": 59,
            "name": "B3",
            "velocity": 0.6299212598425197,
            "duration": 0.6620635562500006,
            "ticks": 27120,
            "durationTicks": 911
          },
          {
            "time": 20.034872,
            "midi": 63,
            "name": "D#4",
            "velocity": 0.6299212598425197,
            "duration": 0.6620635562500006,
            "ticks": 27120,
            "durationTicks": 911
          },
          {
            "time": 20.034872,
            "midi": 66,
            "name": "F#4",
            "velocity": 0.6299212598425197,
            "duration": 0.6620635562500006,
            "ticks": 27120,
            "durationTicks": 911
          },
          {
            "time": 20.732546,
            "midi": 63,
            "name": "D#4",
            "velocity": 0.6299212598425197,
            "duration": 0.3306684062500018,
            "ticks": 28080,
            "durationTicks": 455
          },
          {
            "time": 20.732546,
            "midi": 66,
            "name": "F#4",
            "velocity": 0.6299212598425197,
            "duration": 0.3306684062500018,
            "ticks": 28080,
            "durationTicks": 455
          },
          {
            "time": 21.430220000000002,
            "midi": 56,
            "name": "G#3",
            "velocity": 0.6299212598425197,
            "duration": 0.662063556249997,
            "ticks": 29040,
            "durationTicks": 911
          },
          {
            "time": 21.430220000000002,
            "midi": 58,
            "name": "A#3",
            "velocity": 0.6299212598425197,
            "duration": 0.662063556249997,
            "ticks": 29040,
            "durationTicks": 911
          },
          {
            "time": 21.430220000000002,
            "midi": 61,
            "name": "C#4",
            "velocity": 0.6299212598425197,
            "duration": 0.662063556249997,
            "ticks": 29040,
            "durationTicks": 911
          },
          {
            "time": 22.127894,
            "midi": 58,
            "name": "A#3",
            "velocity": 0.6299212598425197,
            "duration": 0.33066840624999827,
            "ticks": 30000,
            "durationTicks": 455
          },
          {
            "time": 22.127894,
            "midi": 61,
            "name": "C#4",
            "velocity": 0.6299212598425197,
            "duration": 0.33066840624999827,
            "ticks": 30000,
            "durationTicks": 455
          },
          {
            "time": 22.825568,
            "midi": 54,
            "name": "F#3",
            "velocity": 0.6299212598425197,
            "duration": 0.662063556249997,
            "ticks": 30960,
            "durationTicks": 911
          },
          {
            "time": 22.825568,
            "midi": 58,
            "name": "A#3",
            "velocity": 0.6299212598425197,
            "duration": 0.662063556249997,
            "ticks": 30960,
            "durationTicks": 911
          },
          {
            "time": 22.825568,
            "midi": 61,
            "name": "C#4",
            "velocity": 0.6299212598425197,
            "duration": 0.662063556249997,
            "ticks": 30960,
            "durationTicks": 911
          },
          {
            "time": 23.523242,
            "midi": 58,
            "name": "A#3",
            "velocity": 0.6299212598425197,
            "duration": 0.3306684062500018,
            "ticks": 31920,
            "durationTicks": 455
          },
          {
            "time": 23.523242,
            "midi": 61,
            "name": "C#4",
            "velocity": 0.6299212598425197,
            "duration": 0.3306684062500018,
            "ticks": 31920,
            "durationTicks": 455
          },
          {
            "time": 24.220916,
            "midi": 54,
            "name": "F#3",
            "velocity": 0.6299212598425197,
            "duration": 0.6620635562500006,
            "ticks": 32880,
            "durationTicks": 911
          },
          {
            "time": 24.220916,
            "midi": 59,
            "name": "B3",
            "velocity": 0.6299212598425197,
            "duration": 0.6620635562500006,
            "ticks": 32880,
            "durationTicks": 911
          },
          {
            "time": 24.220916,
            "midi": 63,
            "name": "D#4",
            "velocity": 0.6299212598425197,
            "duration": 0.6620635562500006,
            "ticks": 32880,
            "durationTicks": 911
          },
          {
            "time": 24.918590000000002,
            "midi": 59,
            "name": "B3",
            "velocity": 0.6299212598425197,
            "duration": 0.3306684062500018,
            "ticks": 33840,
            "durationTicks": 455
          },
          {
            "time": 24.918590000000002,
            "midi": 63,
            "name": "D#4",
            "velocity": 0.6299212598425197,
            "duration": 0.3306684062500018,
            "ticks": 33840,
            "durationTicks": 455
          },
          {
            "time": 25.616264,
            "midi": 59,
            "name": "B3",
            "velocity": 0.6299212598425197,
            "duration": 0.662063556249997,
            "ticks": 34800,
            "durationTicks": 911
          },
          {
            "time": 25.616264,
            "midi": 63,
            "name": "D#4",
            "velocity": 0.6299212598425197,
            "duration": 0.662063556249997,
            "ticks": 34800,
            "durationTicks": 911
          },
          {
            "time": 25.616264,
            "midi": 66,
            "name": "F#4",
            "velocity": 0.6299212598425197,
            "duration": 0.662063556249997,
            "ticks": 34800,
            "durationTicks": 911
          },
          {
            "time": 26.313938,
            "midi": 63,
            "name": "D#4",
            "velocity": 0.6299212598425197,
            "duration": 0.3306684062500018,
            "ticks": 35760,
            "durationTicks": 455
          },
          {
            "time": 26.313938,
            "midi": 66,
            "name": "F#4",
            "velocity": 0.6299212598425197,
            "duration": 0.3306684062500018,
            "ticks": 35760,
            "durationTicks": 455
          },
          {
            "time": 27.011612,
            "midi": 59,
            "name": "B3",
            "velocity": 0.6299212598425197,
            "duration": 0.6620635562500006,
            "ticks": 36720,
            "durationTicks": 911
          },
          {
            "time": 27.011612,
            "midi": 61,
            "name": "C#4",
            "velocity": 0.6299212598425197,
            "duration": 0.6620635562500006,
            "ticks": 36720,
            "durationTicks": 911
          },
          {
            "time": 27.011612,
            "midi": 68,
            "name": "G#4",
            "velocity": 0.6299212598425197,
            "duration": 0.6620635562500006,
            "ticks": 36720,
            "durationTicks": 911
          },
          {
            "time": 27.709286000000002,
            "midi": 61,
            "name": "C#4",
            "velocity": 0.6299212598425197,
            "duration": 0.33066840624999827,
            "ticks": 37680,
            "durationTicks": 455
          },
          {
            "time": 27.709286000000002,
            "midi": 66,
            "name": "F#4",
            "velocity": 0.6299212598425197,
            "duration": 0.33066840624999827,
            "ticks": 37680,
            "durationTicks": 455
          },
          {
            "time": 28.40696,
            "midi": 59,
            "name": "B3",
            "velocity": 0.6299212598425197,
            "duration": 0.662063556249997,
            "ticks": 38640,
            "durationTicks": 911
          },
          {
            "time": 28.40696,
            "midi": 61,
            "name": "C#4",
            "velocity": 0.6299212598425197,
            "duration": 0.662063556249997,
            "ticks": 38640,
            "durationTicks": 911
          },
          {
            "time": 28.40696,
            "midi": 63,
            "name": "D#4",
            "velocity": 0.6299212598425197,
            "duration": 0.662063556249997,
            "ticks": 38640,
            "durationTicks": 911
          },
          {
            "time": 28.40696,
            "midi": 66,
            "name": "F#4",
            "velocity": 0.6299212598425197,
            "duration": 0.662063556249997,
            "ticks": 38640,
            "durationTicks": 911
          },
          {
            "time": 29.104634,
            "midi": 61,
            "name": "C#4",
            "velocity": 0.6299212598425197,
            "duration": 0.3306684062500018,
            "ticks": 39600,
            "durationTicks": 455
          },
          {
            "time": 29.104634,
            "midi": 63,
            "name": "D#4",
            "velocity": 0.6299212598425197,
            "duration": 0.3306684062500018,
            "ticks": 39600,
            "durationTicks": 455
          },
          {
            "time": 29.104634,
            "midi": 66,
            "name": "F#4",
            "velocity": 0.6299212598425197,
            "duration": 0.3306684062500018,
            "ticks": 39600,
            "durationTicks": 455
          },
          {
            "time": 29.802308,
            "midi": 56,
            "name": "G#3",
            "velocity": 0.6299212598425197,
            "duration": 0.662063556249997,
            "ticks": 40560,
            "durationTicks": 911
          },
          {
            "time": 29.802308,
            "midi": 61,
            "name": "C#4",
            "velocity": 0.6299212598425197,
            "duration": 0.662063556249997,
            "ticks": 40560,
            "durationTicks": 911
          },
          {
            "time": 29.802308,
            "midi": 65,
            "name": "F4",
            "velocity": 0.6299212598425197,
            "duration": 0.662063556249997,
            "ticks": 40560,
            "durationTicks": 911
          },
          {
            "time": 30.499982,
            "midi": 61,
            "name": "C#4",
            "velocity": 0.6299212598425197,
            "duration": 0.3306684062500018,
            "ticks": 41520,
            "durationTicks": 455
          },
          {
            "time": 30.499982,
            "midi": 65,
            "name": "F4",
            "velocity": 0.6299212598425197,
            "duration": 0.3306684062500018,
            "ticks": 41520,
            "durationTicks": 455
          },
          {
            "time": 31.197656000000002,
            "midi": 61,
            "name": "C#4",
            "velocity": 0.6299212598425197,
            "duration": 0.662063556249997,
            "ticks": 42480,
            "durationTicks": 911
          },
          {
            "time": 31.197656000000002,
            "midi": 65,
            "name": "F4",
            "velocity": 0.6299212598425197,
            "duration": 0.662063556249997,
            "ticks": 42480,
            "durationTicks": 911
          },
          {
            "time": 31.197656000000002,
            "midi": 68,
            "name": "G#4",
            "velocity": 0.6299212598425197,
            "duration": 0.662063556249997,
            "ticks": 42480,
            "durationTicks": 911
          },
          {
            "time": 31.89533,
            "midi": 65,
            "name": "F4",
            "velocity": 0.6299212598425197,
            "duration": 0.33066840624999827,
            "ticks": 43440,
            "durationTicks": 455
          },
          {
            "time": 31.89533,
            "midi": 68,
            "name": "G#4",
            "velocity": 0.6299212598425197,
            "duration": 0.33066840624999827,
            "ticks": 43440,
            "durationTicks": 455
          },
          {
            "time": 32.593004,
            "midi": 58,
            "name": "A#3",
            "velocity": 0.6299212598425197,
            "duration": 0.662063556249997,
            "ticks": 44400,
            "durationTicks": 911
          },
          {
            "time": 32.593004,
            "midi": 61,
            "name": "C#4",
            "velocity": 0.6299212598425197,
            "duration": 0.662063556249997,
            "ticks": 44400,
            "durationTicks": 911
          },
          {
            "time": 32.593004,
            "midi": 66,
            "name": "F#4",
            "velocity": 0.6299212598425197,
            "duration": 0.662063556249997,
            "ticks": 44400,
            "durationTicks": 911
          },
          {
            "time": 33.290678,
            "midi": 61,
            "name": "C#4",
            "velocity": 0.6299212598425197,
            "duration": 0.3306684062500054,
            "ticks": 45360,
            "durationTicks": 455
          },
          {
            "time": 33.290678,
            "midi": 66,
            "name": "F#4",
            "velocity": 0.6299212598425197,
            "duration": 0.3306684062500054,
            "ticks": 45360,
            "durationTicks": 455
          },
          {
            "time": 33.988352,
            "midi": 63,
            "name": "D#4",
            "velocity": 0.6299212598425197,
            "duration": 0.662063556249997,
            "ticks": 46320,
            "durationTicks": 911
          },
          {
            "time": 33.988352,
            "midi": 66,
            "name": "F#4",
            "velocity": 0.6299212598425197,
            "duration": 0.662063556249997,
            "ticks": 46320,
            "durationTicks": 911
          },
          {
            "time": 33.988352,
            "midi": 71,
            "name": "B4",
            "velocity": 0.6299212598425197,
            "duration": 0.662063556249997,
            "ticks": 46320,
            "durationTicks": 911
          },
          {
            "time": 34.686026,
            "midi": 66,
            "name": "F#4",
            "velocity": 0.6299212598425197,
            "duration": 0.3306684062500054,
            "ticks": 47280,
            "durationTicks": 455
          },
          {
            "time": 34.686026,
            "midi": 71,
            "name": "B4",
            "velocity": 0.6299212598425197,
            "duration": 0.3306684062500054,
            "ticks": 47280,
            "durationTicks": 455
          },
          {
            "time": 35.3837,
            "midi": 61,
            "name": "C#4",
            "velocity": 0.6299212598425197,
            "duration": 0.6620635562500041,
            "ticks": 48240,
            "durationTicks": 911
          },
          {
            "time": 35.3837,
            "midi": 66,
            "name": "F#4",
            "velocity": 0.6299212598425197,
            "duration": 0.6620635562500041,
            "ticks": 48240,
            "durationTicks": 911
          },
          {
            "time": 35.3837,
            "midi": 70,
            "name": "A#4",
            "velocity": 0.6299212598425197,
            "duration": 0.6620635562500041,
            "ticks": 48240,
            "durationTicks": 911
          },
          {
            "time": 36.081374000000004,
            "midi": 65,
            "name": "F4",
            "velocity": 0.6299212598425197,
            "duration": 0.33066840624999827,
            "ticks": 49200,
            "durationTicks": 455
          },
          {
            "time": 36.081374000000004,
            "midi": 68,
            "name": "G#4",
            "velocity": 0.6299212598425197,
            "duration": 0.33066840624999827,
            "ticks": 49200,
            "durationTicks": 455
          },
          {
            "time": 36.779048,
            "midi": 61,
            "name": "C#4",
            "velocity": 0.6299212598425197,
            "duration": 0.662063556249997,
            "ticks": 50160,
            "durationTicks": 911
          },
          {
            "time": 36.779048,
            "midi": 66,
            "name": "F#4",
            "velocity": 0.6299212598425197,
            "duration": 0.662063556249997,
            "ticks": 50160,
            "durationTicks": 911
          },
          {
            "time": 36.779048,
            "midi": 70,
            "name": "A#4",
            "velocity": 0.6299212598425197,
            "duration": 0.662063556249997,
            "ticks": 50160,
            "durationTicks": 911
          },
          {
            "time": 37.476722,
            "midi": 66,
            "name": "F#4",
            "velocity": 0.6299212598425197,
            "duration": 0.22020335624999632,
            "ticks": 51120,
            "durationTicks": 303
          },
          {
            "time": 37.70928,
            "midi": 65,
            "name": "F4",
            "velocity": 0.6299212598425197,
            "duration": 0.4411334562500002,
            "ticks": 51440,
            "durationTicks": 607
          },
          {
            "time": 38.174396,
            "midi": 58,
            "name": "A#3",
            "velocity": 0.6299212598425197,
            "duration": 0.662063556249997,
            "ticks": 52080,
            "durationTicks": 911
          },
          {
            "time": 38.174396,
            "midi": 61,
            "name": "C#4",
            "velocity": 0.6299212598425197,
            "duration": 0.662063556249997,
            "ticks": 52080,
            "durationTicks": 911
          },
          {
            "time": 38.174396,
            "midi": 64,
            "name": "E4",
            "velocity": 0.6299212598425197,
            "duration": 0.662063556249997,
            "ticks": 52080,
            "durationTicks": 911
          },
          {
            "time": 38.87207,
            "midi": 61,
            "name": "C#4",
            "velocity": 0.6299212598425197,
            "duration": 0.33066840624999827,
            "ticks": 53040,
            "durationTicks": 455
          },
          {
            "time": 38.87207,
            "midi": 64,
            "name": "E4",
            "velocity": 0.6299212598425197,
            "duration": 0.33066840624999827,
            "ticks": 53040,
            "durationTicks": 455
          },
          {
            "time": 39.569744,
            "midi": 59,
            "name": "B3",
            "velocity": 0.6299212598425197,
            "duration": 0.662063556249997,
            "ticks": 54000,
            "durationTicks": 911
          },
          {
            "time": 39.569744,
            "midi": 61,
            "name": "C#4",
            "velocity": 0.6299212598425197,
            "duration": 0.662063556249997,
            "ticks": 54000,
            "durationTicks": 911
          },
          {
            "time": 39.569744,
            "midi": 63,
            "name": "D#4",
            "velocity": 0.6299212598425197,
            "duration": 0.662063556249997,
            "ticks": 54000,
            "durationTicks": 911
          },
          {
            "time": 39.569744,
            "midi": 66,
            "name": "F#4",
            "velocity": 0.6299212598425197,
            "duration": 0.662063556249997,
            "ticks": 54000,
            "durationTicks": 911
          },
          {
            "time": 40.267418,
            "midi": 61,
            "name": "C#4",
            "velocity": 0.6299212598425197,
            "duration": 0.3306684062500054,
            "ticks": 54960,
            "durationTicks": 455
          },
          {
            "time": 40.267418,
            "midi": 63,
            "name": "D#4",
            "velocity": 0.6299212598425197,
            "duration": 0.3306684062500054,
            "ticks": 54960,
            "durationTicks": 455
          },
          {
            "time": 40.267418,
            "midi": 66,
            "name": "F#4",
            "velocity": 0.6299212598425197,
            "duration": 0.3306684062500054,
            "ticks": 54960,
            "durationTicks": 455
          },
          {
            "time": 40.965092,
            "midi": 56,
            "name": "G#3",
            "velocity": 0.6299212598425197,
            "duration": 0.662063556249997,
            "ticks": 55920,
            "durationTicks": 911
          },
          {
            "time": 40.965092,
            "midi": 61,
            "name": "C#4",
            "velocity": 0.6299212598425197,
            "duration": 0.662063556249997,
            "ticks": 55920,
            "durationTicks": 911
          },
          {
            "time": 40.965092,
            "midi": 65,
            "name": "F4",
            "velocity": 0.6299212598425197,
            "duration": 0.662063556249997,
            "ticks": 55920,
            "durationTicks": 911
          },
          {
            "time": 41.662766,
            "midi": 61,
            "name": "C#4",
            "velocity": 0.6299212598425197,
            "duration": 0.3306684062500054,
            "ticks": 56880,
            "durationTicks": 455
          },
          {
            "time": 41.662766,
            "midi": 65,
            "name": "F4",
            "velocity": 0.6299212598425197,
            "duration": 0.3306684062500054,
            "ticks": 56880,
            "durationTicks": 455
          },
          {
            "time": 42.360440000000004,
            "midi": 61,
            "name": "C#4",
            "velocity": 0.6299212598425197,
            "duration": 0.662063556249997,
            "ticks": 57840,
            "durationTicks": 911
          },
          {
            "time": 42.360440000000004,
            "midi": 65,
            "name": "F4",
            "velocity": 0.6299212598425197,
            "duration": 0.662063556249997,
            "ticks": 57840,
            "durationTicks": 911
          },
          {
            "time": 42.360440000000004,
            "midi": 68,
            "name": "G#4",
            "velocity": 0.6299212598425197,
            "duration": 0.662063556249997,
            "ticks": 57840,
            "durationTicks": 911
          },
          {
            "time": 43.058114,
            "midi": 65,
            "name": "F4",
            "velocity": 0.6299212598425197,
            "duration": 0.33066840624999827,
            "ticks": 58800,
            "durationTicks": 455
          },
          {
            "time": 43.058114,
            "midi": 68,
            "name": "G#4",
            "velocity": 0.6299212598425197,
            "duration": 0.33066840624999827,
            "ticks": 58800,
            "durationTicks": 455
          },
          {
            "time": 43.755788,
            "midi": 58,
            "name": "A#3",
            "velocity": 0.6299212598425197,
            "duration": 0.662063556249997,
            "ticks": 59760,
            "durationTicks": 911
          },
          {
            "time": 43.755788,
            "midi": 61,
            "name": "C#4",
            "velocity": 0.6299212598425197,
            "duration": 0.662063556249997,
            "ticks": 59760,
            "durationTicks": 911
          },
          {
            "time": 43.755788,
            "midi": 66,
            "name": "F#4",
            "velocity": 0.6299212598425197,
            "duration": 0.662063556249997,
            "ticks": 59760,
            "durationTicks": 911
          },
          {
            "time": 44.453462,
            "midi": 61,
            "name": "C#4",
            "velocity": 0.6299212598425197,
            "duration": 0.33066840624999827,
            "ticks": 60720,
            "durationTicks": 455
          },
          {
            "time": 44.453462,
            "midi": 66,
            "name": "F#4",
            "velocity": 0.6299212598425197,
            "duration": 0.33066840624999827,
            "ticks": 60720,
            "durationTicks": 455
          },
          {
            "time": 45.151136,
            "midi": 59,
            "name": "B3",
            "velocity": 0.6299212598425197,
            "duration": 0.6620635562500041,
            "ticks": 61680,
            "durationTicks": 911
          },
          {
            "time": 45.151136,
            "midi": 61,
            "name": "C#4",
            "velocity": 0.6299212598425197,
            "duration": 0.6620635562500041,
            "ticks": 61680,
            "durationTicks": 911
          },
          {
            "time": 45.151136,
            "midi": 63,
            "name": "D#4",
            "velocity": 0.6299212598425197,
            "duration": 0.6620635562500041,
            "ticks": 61680,
            "durationTicks": 911
          },
          {
            "time": 45.151136,
            "midi": 66,
            "name": "F#4",
            "velocity": 0.6299212598425197,
            "duration": 0.6620635562500041,
            "ticks": 61680,
            "durationTicks": 911
          },
          {
            "time": 45.84881,
            "midi": 66,
            "name": "F#4",
            "velocity": 0.6299212598425197,
            "duration": 0.33066840624999827,
            "ticks": 62640,
            "durationTicks": 455
          },
          {
            "time": 46.197647,
            "midi": 44,
            "name": "G#2",
            "velocity": 0.7874015748031497,
            "duration": 0.33066840624999116,
            "ticks": 63120,
            "durationTicks": 455
          },
          {
            "time": 46.430205,
            "midi": 66,
            "name": "F#4",
            "velocity": 0.6299212598425197,
            "duration": 0.4411334562500002,
            "ticks": 63440,
            "durationTicks": 607
          },
          {
            "time": 46.779042,
            "midi": 32,
            "name": "G#1",
            "velocity": 0.7874015748031497,
            "duration": 0.10973830625000147,
            "ticks": 63920,
            "durationTicks": 151
          },
          {
            "time": 46.895321,
            "midi": 66,
            "name": "F#4",
            "velocity": 0.6299212598425197,
            "duration": 0.33066840624999827,
            "ticks": 64080,
            "durationTicks": 455
          },
          {
            "time": 47.244158,
            "midi": 44,
            "name": "G#2",
            "velocity": 0.7874015748031497,
            "duration": 0.33066840624999827,
            "ticks": 64560,
            "durationTicks": 455
          },
          {
            "time": 47.476715999999996,
            "midi": 66,
            "name": "F#4",
            "velocity": 0.6299212598425197,
            "duration": 0.4411334562500073,
            "ticks": 64880,
            "durationTicks": 607
          },
          {
            "time": 47.592995,
            "midi": 32,
            "name": "G#1",
            "velocity": 0.7874015748031497,
            "duration": 0.33066840624999827,
            "ticks": 65040,
            "durationTicks": 455
          },
          {
            "time": 47.941832,
            "midi": 37,
            "name": "C#2",
            "velocity": 0.7874015748031497,
            "duration": 0.33066840624999827,
            "ticks": 65520,
            "durationTicks": 455
          },
          {
            "time": 48.174389999999995,
            "midi": 66,
            "name": "F#4",
            "velocity": 0.6299212598425197,
            "duration": 0.10973830625000147,
            "ticks": 65840,
            "durationTicks": 151
          },
          {
            "time": 48.523227,
            "midi": 49,
            "name": "C#3",
            "velocity": 0.7874015748031497,
            "duration": 0.10973830625000147,
            "ticks": 66320,
            "durationTicks": 151
          },
          {
            "time": 48.639506000000004,
            "midi": 66,
            "name": "F#4",
            "velocity": 0.6299212598425197,
            "duration": 0.33066840624999116,
            "ticks": 66480,
            "durationTicks": 455
          },
          {
            "time": 48.988343,
            "midi": 37,
            "name": "C#2",
            "velocity": 0.7874015748031497,
            "duration": 0.33066840624999827,
            "ticks": 66960,
            "durationTicks": 455
          },
          {
            "time": 49.220901,
            "midi": 65,
            "name": "F4",
            "velocity": 0.6299212598425197,
            "duration": 0.10973830625000147,
            "ticks": 67280,
            "durationTicks": 151
          },
          {
            "time": 49.569738,
            "midi": 49,
            "name": "C#3",
            "velocity": 0.7874015748031497,
            "duration": 0.10973830624999437,
            "ticks": 67760,
            "durationTicks": 151
          },
          {
            "time": 49.686017,
            "midi": 65,
            "name": "F4",
            "velocity": 0.6299212598425197,
            "duration": 0.33066840624999827,
            "ticks": 67920,
            "durationTicks": 455
          },
          {
            "time": 50.034854,
            "midi": 37,
            "name": "C#2",
            "velocity": 0.7874015748031497,
            "duration": 0.6620635562500041,
            "ticks": 68400,
            "durationTicks": 911
          },
          {
            "time": 50.267412,
            "midi": 65,
            "name": "F4",
            "velocity": 0.6299212598425197,
            "duration": 0.4411334562500002,
            "ticks": 68720,
            "durationTicks": 607
          },
          {
            "time": 50.732528,
            "midi": 54,
            "name": "F#3",
            "velocity": 0.6299212598425197,
            "duration": 0.6620635562500041,
            "ticks": 69360,
            "durationTicks": 911
          },
          {
            "time": 50.732528,
            "midi": 58,
            "name": "A#3",
            "velocity": 0.6299212598425197,
            "duration": 0.6620635562500041,
            "ticks": 69360,
            "durationTicks": 911
          },
          {
            "time": 50.732528,
            "midi": 61,
            "name": "C#4",
            "velocity": 0.6299212598425197,
            "duration": 0.6620635562500041,
            "ticks": 69360,
            "durationTicks": 911
          },
          {
            "time": 51.430202,
            "midi": 58,
            "name": "A#3",
            "velocity": 0.6299212598425197,
            "duration": 0.33066840624999827,
            "ticks": 70320,
            "durationTicks": 455
          },
          {
            "time": 51.430202,
            "midi": 61,
            "name": "C#4",
            "velocity": 0.6299212598425197,
            "duration": 0.33066840624999827,
            "ticks": 70320,
            "durationTicks": 455
          },
          {
            "time": 52.127876,
            "midi": 54,
            "name": "F#3",
            "velocity": 0.6299212598425197,
            "duration": 0.6620635562500041,
            "ticks": 71280,
            "durationTicks": 911
          },
          {
            "time": 52.127876,
            "midi": 59,
            "name": "B3",
            "velocity": 0.6299212598425197,
            "duration": 0.6620635562500041,
            "ticks": 71280,
            "durationTicks": 911
          },
          {
            "time": 52.127876,
            "midi": 63,
            "name": "D#4",
            "velocity": 0.6299212598425197,
            "duration": 0.6620635562500041,
            "ticks": 71280,
            "durationTicks": 911
          },
          {
            "time": 52.82555,
            "midi": 59,
            "name": "B3",
            "velocity": 0.6299212598425197,
            "duration": 0.33066840624999827,
            "ticks": 72240,
            "durationTicks": 455
          },
          {
            "time": 52.82555,
            "midi": 63,
            "name": "D#4",
            "velocity": 0.6299212598425197,
            "duration": 0.33066840624999827,
            "ticks": 72240,
            "durationTicks": 455
          },
          {
            "time": 53.523224,
            "midi": 59,
            "name": "B3",
            "velocity": 0.6299212598425197,
            "duration": 0.6620635562500041,
            "ticks": 73200,
            "durationTicks": 911
          },
          {
            "time": 53.523224,
            "midi": 63,
            "name": "D#4",
            "velocity": 0.6299212598425197,
            "duration": 0.6620635562500041,
            "ticks": 73200,
            "durationTicks": 911
          },
          {
            "time": 53.523224,
            "midi": 66,
            "name": "F#4",
            "velocity": 0.6299212598425197,
            "duration": 0.6620635562500041,
            "ticks": 73200,
            "durationTicks": 911
          },
          {
            "time": 54.220898,
            "midi": 63,
            "name": "D#4",
            "velocity": 0.6299212598425197,
            "duration": 0.33066840624999827,
            "ticks": 74160,
            "durationTicks": 455
          },
          {
            "time": 54.220898,
            "midi": 66,
            "name": "F#4",
            "velocity": 0.6299212598425197,
            "duration": 0.33066840624999827,
            "ticks": 74160,
            "durationTicks": 455
          },
          {
            "time": 54.918572000000005,
            "midi": 56,
            "name": "G#3",
            "velocity": 0.6299212598425197,
            "duration": 0.662063556249997,
            "ticks": 75120,
            "durationTicks": 911
          },
          {
            "time": 54.918572000000005,
            "midi": 58,
            "name": "A#3",
            "velocity": 0.6299212598425197,
            "duration": 0.662063556249997,
            "ticks": 75120,
            "durationTicks": 911
          },
          {
            "time": 54.918572000000005,
            "midi": 61,
            "name": "C#4",
            "velocity": 0.6299212598425197,
            "duration": 0.662063556249997,
            "ticks": 75120,
            "durationTicks": 911
          },
          {
            "time": 55.616246000000004,
            "midi": 58,
            "name": "A#3",
            "velocity": 0.6299212598425197,
            "duration": 0.33066840624999116,
            "ticks": 76080,
            "durationTicks": 455
          },
          {
            "time": 55.616246000000004,
            "midi": 61,
            "name": "C#4",
            "velocity": 0.6299212598425197,
            "duration": 0.33066840624999116,
            "ticks": 76080,
            "durationTicks": 455
          },
          {
            "time": 56.31392,
            "midi": 54,
            "name": "F#3",
            "velocity": 0.6299212598425197,
            "duration": 0.6620635562500041,
            "ticks": 77040,
            "durationTicks": 911
          },
          {
            "time": 56.31392,
            "midi": 58,
            "name": "A#3",
            "velocity": 0.6299212598425197,
            "duration": 0.6620635562500041,
            "ticks": 77040,
            "durationTicks": 911
          },
          {
            "time": 56.31392,
            "midi": 61,
            "name": "C#4",
            "velocity": 0.6299212598425197,
            "duration": 0.6620635562500041,
            "ticks": 77040,
            "durationTicks": 911
          },
          {
            "time": 57.011594,
            "midi": 58,
            "name": "A#3",
            "velocity": 0.6299212598425197,
            "duration": 0.33066840624999827,
            "ticks": 78000,
            "durationTicks": 455
          },
          {
            "time": 57.011594,
            "midi": 61,
            "name": "C#4",
            "velocity": 0.6299212598425197,
            "duration": 0.33066840624999827,
            "ticks": 78000,
            "durationTicks": 455
          },
          {
            "time": 57.709268,
            "midi": 54,
            "name": "F#3",
            "velocity": 0.6299212598425197,
            "duration": 0.6620635562500041,
            "ticks": 78960,
            "durationTicks": 911
          },
          {
            "time": 57.709268,
            "midi": 59,
            "name": "B3",
            "velocity": 0.6299212598425197,
            "duration": 0.6620635562500041,
            "ticks": 78960,
            "durationTicks": 911
          },
          {
            "time": 57.709268,
            "midi": 63,
            "name": "D#4",
            "velocity": 0.6299212598425197,
            "duration": 0.6620635562500041,
            "ticks": 78960,
            "durationTicks": 911
          },
          {
            "time": 58.406942,
            "midi": 59,
            "name": "B3",
            "velocity": 0.6299212598425197,
            "duration": 0.33066840624999827,
            "ticks": 79920,
            "durationTicks": 455
          },
          {
            "time": 58.406942,
            "midi": 63,
            "name": "D#4",
            "velocity": 0.6299212598425197,
            "duration": 0.33066840624999827,
            "ticks": 79920,
            "durationTicks": 455
          },
          {
            "time": 59.104616,
            "midi": 59,
            "name": "B3",
            "velocity": 0.6299212598425197,
            "duration": 0.6620635562500041,
            "ticks": 80880,
            "durationTicks": 911
          },
          {
            "time": 59.104616,
            "midi": 63,
            "name": "D#4",
            "velocity": 0.6299212598425197,
            "duration": 0.6620635562500041,
            "ticks": 80880,
            "durationTicks": 911
          },
          {
            "time": 59.104616,
            "midi": 66,
            "name": "F#4",
            "velocity": 0.6299212598425197,
            "duration": 0.6620635562500041,
            "ticks": 80880,
            "durationTicks": 911
          },
          {
            "time": 59.80229,
            "midi": 63,
            "name": "D#4",
            "velocity": 0.6299212598425197,
            "duration": 0.33066840624999827,
            "ticks": 81840,
            "durationTicks": 455
          },
          {
            "time": 59.80229,
            "midi": 66,
            "name": "F#4",
            "velocity": 0.6299212598425197,
            "duration": 0.33066840624999827,
            "ticks": 81840,
            "durationTicks": 455
          },
          {
            "time": 60.499964,
            "midi": 59,
            "name": "B3",
            "velocity": 0.6299212598425197,
            "duration": 0.6620635562500041,
            "ticks": 82800,
            "durationTicks": 911
          },
          {
            "time": 60.499964,
            "midi": 61,
            "name": "C#4",
            "velocity": 0.6299212598425197,
            "duration": 0.6620635562500041,
            "ticks": 82800,
            "durationTicks": 911
          },
          {
            "time": 60.499964,
            "midi": 68,
            "name": "G#4",
            "velocity": 0.6299212598425197,
            "duration": 0.6620635562500041,
            "ticks": 82800,
            "durationTicks": 911
          },
          {
            "time": 61.197638000000005,
            "midi": 61,
            "name": "C#4",
            "velocity": 0.6299212598425197,
            "duration": 0.33066840624999116,
            "ticks": 83760,
            "durationTicks": 455
          },
          {
            "time": 61.197638000000005,
            "midi": 66,
            "name": "F#4",
            "velocity": 0.6299212598425197,
            "duration": 0.33066840624999116,
            "ticks": 83760,
            "durationTicks": 455
          },
          {
            "time": 61.895312000000004,
            "midi": 66,
            "name": "F#4",
            "velocity": 0.6299212598425197,
            "duration": 0.33066840624999116,
            "ticks": 84720,
            "durationTicks": 455
          },
          {
            "time": 61.895312000000004,
            "midi": 70,
            "name": "A#4",
            "velocity": 0.6299212598425197,
            "duration": 0.33066840624999116,
            "ticks": 84720,
            "durationTicks": 455
          },
          {
            "time": 61.895312000000004,
            "midi": 73,
            "name": "C#5",
            "velocity": 0.6299212598425197,
            "duration": 0.33066840624999116,
            "ticks": 84720,
            "durationTicks": 455
          },
          {
            "time": 61.895312000000004,
            "midi": 78,
            "name": "F#5",
            "velocity": 0.6299212598425197,
            "duration": 0.33066840624999116,
            "ticks": 84720,
            "durationTicks": 455
          },
          {
            "time": 62.476707,
            "midi": 66,
            "name": "F#4",
            "velocity": 0.6299212598425197,
            "duration": 0.10973830625000147,
            "ticks": 85520,
            "durationTicks": 151
          },
          {
            "time": 62.476707,
            "midi": 70,
            "name": "A#4",
            "velocity": 0.6299212598425197,
            "duration": 0.10973830625000147,
            "ticks": 85520,
            "durationTicks": 151
          },
          {
            "time": 62.476707,
            "midi": 73,
            "name": "C#5",
            "velocity": 0.6299212598425197,
            "duration": 0.10973830625000147,
            "ticks": 85520,
            "durationTicks": 151
          },
          {
            "time": 62.476707,
            "midi": 78,
            "name": "F#5",
            "velocity": 0.6299212598425197,
            "duration": 0.10973830625000147,
            "ticks": 85520,
            "durationTicks": 151
          },
          {
            "time": 62.941823,
            "midi": 66,
            "name": "F#4",
            "velocity": 0.6299212598425197,
            "duration": 0.9934587062500029,
            "ticks": 86160,
            "durationTicks": 1367
          },
          {
            "time": 62.941823,
            "midi": 70,
            "name": "A#4",
            "velocity": 0.6299212598425197,
            "duration": 0.9934587062500029,
            "ticks": 86160,
            "durationTicks": 1367
          },
          {
            "time": 62.941823,
            "midi": 73,
            "name": "C#5",
            "velocity": 0.6299212598425197,
            "duration": 0.9934587062500029,
            "ticks": 86160,
            "durationTicks": 1367
          },
          {
            "time": 62.941823,
            "midi": 78,
            "name": "F#5",
            "velocity": 0.6299212598425197,
            "duration": 0.9934587062500029,
            "ticks": 86160,
            "durationTicks": 1367
          }
        ],
        "controlChanges": {
          "7": [
            {
              "number": 7,
              "value": 0.7874015748031497,
              "time": 0,
              "ticks": 0
            }
          ],
          "10": [
            {
              "number": 10,
              "value": 0.5039370078740157,
              "time": 0,
              "ticks": 0
            }
          ],
          "91": [
            {
              "number": 91,
              "value": 0,
              "time": 0,
              "ticks": 0
            }
          ],
          "93": [
            {
              "number": 93,
              "value": 0,
              "time": 0,
              "ticks": 0
            }
          ],
          "121": [
            {
              "number": 121,
              "value": 0,
              "time": 0,
              "ticks": 0
            }
          ]
        }
      },
      {
        "name": "",
        "channel": 0,
        "instrument": {
          "number": 0,
          "name": "acoustic grand piano",
          "family": "piano"
        },
        "notes": [
          {
            "time": 0.732558,
            "midi": 56,
            "name": "G#3",
            "velocity": 0.6299212598425197,
            "duration": 0.10973830624999992,
            "ticks": 560,
            "durationTicks": 151
          },
          {
            "time": 0.732558,
            "midi": 59,
            "name": "B3",
            "velocity": 0.6299212598425197,
            "duration": 0.10973830624999992,
            "ticks": 560,
            "durationTicks": 151
          },
          {
            "time": 0.732558,
            "midi": 63,
            "name": "D#4",
            "velocity": 0.6299212598425197,
            "duration": 0.10973830624999992,
            "ticks": 560,
            "durationTicks": 151
          },
          {
            "time": 1.1976740000000001,
            "midi": 56,
            "name": "G#3",
            "velocity": 0.6299212598425197,
            "duration": 0.3306684062499998,
            "ticks": 1200,
            "durationTicks": 455
          },
          {
            "time": 1.1976740000000001,
            "midi": 59,
            "name": "B3",
            "velocity": 0.6299212598425197,
            "duration": 0.3306684062499998,
            "ticks": 1200,
            "durationTicks": 455
          },
          {
            "time": 1.1976740000000001,
            "midi": 63,
            "name": "D#4",
            "velocity": 0.6299212598425197,
            "duration": 0.3306684062499998,
            "ticks": 1200,
            "durationTicks": 455
          },
          {
            "time": 1.779069,
            "midi": 56,
            "name": "G#3",
            "velocity": 0.6299212598425197,
            "duration": 0.10973830625000014,
            "ticks": 2000,
            "durationTicks": 151
          },
          {
            "time": 1.779069,
            "midi": 59,
            "name": "B3",
            "velocity": 0.6299212598425197,
            "duration": 0.10973830625000014,
            "ticks": 2000,
            "durationTicks": 151
          },
          {
            "time": 1.779069,
            "midi": 63,
            "name": "D#4",
            "velocity": 0.6299212598425197,
            "duration": 0.10973830625000014,
            "ticks": 2000,
            "durationTicks": 151
          },
          {
            "time": 2.244185,
            "midi": 56,
            "name": "G#3",
            "velocity": 0.6299212598425197,
            "duration": 0.3306684062500005,
            "ticks": 2640,
            "durationTicks": 455
          },
          {
            "time": 2.244185,
            "midi": 59,
            "name": "B3",
            "velocity": 0.6299212598425197,
            "duration": 0.3306684062500005,
            "ticks": 2640,
            "durationTicks": 455
          },
          {
            "time": 2.244185,
            "midi": 63,
            "name": "D#4",
            "velocity": 0.6299212598425197,
            "duration": 0.3306684062500005,
            "ticks": 2640,
            "durationTicks": 455
          },
          {
            "time": 2.82558,
            "midi": 56,
            "name": "G#3",
            "velocity": 0.6299212598425197,
            "duration": 0.4411334562500002,
            "ticks": 3440,
            "durationTicks": 607
          },
          {
            "time": 2.82558,
            "midi": 59,
            "name": "B3",
            "velocity": 0.6299212598425197,
            "duration": 0.4411334562500002,
            "ticks": 3440,
            "durationTicks": 607
          },
          {
            "time": 2.82558,
            "midi": 63,
            "name": "D#4",
            "velocity": 0.6299212598425197,
            "duration": 0.4411334562500002,
            "ticks": 3440,
            "durationTicks": 607
          },
          {
            "time": 3.5232539999999997,
            "midi": 56,
            "name": "G#3",
            "velocity": 0.6299212598425197,
            "duration": 0.10973830625000014,
            "ticks": 4400,
            "durationTicks": 151
          },
          {
            "time": 3.5232539999999997,
            "midi": 59,
            "name": "B3",
            "velocity": 0.6299212598425197,
            "duration": 0.10973830625000014,
            "ticks": 4400,
            "durationTicks": 151
          },
          {
            "time": 3.5232539999999997,
            "midi": 61,
            "name": "C#4",
            "velocity": 0.6299212598425197,
            "duration": 0.10973830625000014,
            "ticks": 4400,
            "durationTicks": 151
          },
          {
            "time": 3.98837,
            "midi": 56,
            "name": "G#3",
            "velocity": 0.6299212598425197,
            "duration": 0.3306684062499996,
            "ticks": 5040,
            "durationTicks": 455
          },
          {
            "time": 3.98837,
            "midi": 59,
            "name": "B3",
            "velocity": 0.6299212598425197,
            "duration": 0.3306684062499996,
            "ticks": 5040,
            "durationTicks": 455
          },
          {
            "time": 3.98837,
            "midi": 61,
            "name": "C#4",
            "velocity": 0.6299212598425197,
            "duration": 0.3306684062499996,
            "ticks": 5040,
            "durationTicks": 455
          },
          {
            "time": 4.569765,
            "midi": 56,
            "name": "G#3",
            "velocity": 0.6299212598425197,
            "duration": 0.7725286062499999,
            "ticks": 5840,
            "durationTicks": 1063
          },
          {
            "time": 4.569765,
            "midi": 59,
            "name": "B3",
            "velocity": 0.6299212598425197,
            "duration": 0.7725286062499999,
            "ticks": 5840,
            "durationTicks": 1063
          },
          {
            "time": 4.569765,
            "midi": 61,
            "name": "C#4",
            "velocity": 0.6299212598425197,
            "duration": 0.7725286062499999,
            "ticks": 5840,
            "durationTicks": 1063
          },
          {
            "time": 5.383718,
            "midi": 56,
            "name": "G#3",
            "velocity": 0.6299212598425197,
            "duration": 0.6620635562500006,
            "ticks": 6960,
            "durationTicks": 911
          },
          {
            "time": 5.383718,
            "midi": 59,
            "name": "B3",
            "velocity": 0.6299212598425197,
            "duration": 0.6620635562500006,
            "ticks": 6960,
            "durationTicks": 911
          },
          {
            "time": 5.383718,
            "midi": 61,
            "name": "C#4",
            "velocity": 0.6299212598425197,
            "duration": 0.6620635562500006,
            "ticks": 6960,
            "durationTicks": 911
          },
          {
            "time": 6.081392,
            "midi": 39,
            "name": "D#2",
            "velocity": 0.7874015748031497,
            "duration": 0.5515985062500004,
            "ticks": 7920,
            "durationTicks": 759
          },
          {
            "time": 6.662787000000001,
            "midi": 51,
            "name": "D#3",
            "velocity": 0.7874015748031497,
            "duration": 0.10973830624999881,
            "ticks": 8720,
            "durationTicks": 151
          },
          {
            "time": 6.779066,
            "midi": 54,
            "name": "F#3",
            "velocity": 0.6299212598425197,
            "duration": 0.33066840625000005,
            "ticks": 8880,
            "durationTicks": 455
          },
          {
            "time": 7.011624,
            "midi": 51,
            "name": "D#3",
            "velocity": 0.7874015748031497,
            "duration": 0.1097383062499997,
            "ticks": 9200,
            "durationTicks": 151
          },
          {
            "time": 7.127903,
            "midi": 39,
            "name": "D#2",
            "velocity": 0.7874015748031497,
            "duration": 0.33066840625000093,
            "ticks": 9360,
            "durationTicks": 455
          },
          {
            "time": 7.47674,
            "midi": 32,
            "name": "G#1",
            "velocity": 0.7874015748031497,
            "duration": 0.5515985062500013,
            "ticks": 9840,
            "durationTicks": 759
          },
          {
            "time": 8.058135,
            "midi": 44,
            "name": "G#2",
            "velocity": 0.7874015748031497,
            "duration": 0.1097383062499997,
            "ticks": 10640,
            "durationTicks": 151
          },
          {
            "time": 8.174414,
            "midi": 54,
            "name": "F#3",
            "velocity": 0.6299212598425197,
            "duration": 0.33066840625000005,
            "ticks": 10800,
            "durationTicks": 455
          },
          {
            "time": 8.406972,
            "midi": 44,
            "name": "G#2",
            "velocity": 0.7874015748031497,
            "duration": 0.1097383062499997,
            "ticks": 11120,
            "durationTicks": 151
          },
          {
            "time": 8.523251,
            "midi": 32,
            "name": "G#1",
            "velocity": 0.7874015748031497,
            "duration": 0.33066840625000005,
            "ticks": 11280,
            "durationTicks": 455
          },
          {
            "time": 8.872088,
            "midi": 37,
            "name": "C#2",
            "velocity": 0.7874015748031497,
            "duration": 0.5515985062500004,
            "ticks": 11760,
            "durationTicks": 759
          },
          {
            "time": 9.453483,
            "midi": 49,
            "name": "C#3",
            "velocity": 0.7874015748031497,
            "duration": 0.1097383062499997,
            "ticks": 12560,
            "durationTicks": 151
          },
          {
            "time": 9.569762,
            "midi": 59,
            "name": "B3",
            "velocity": 0.6299212598425197,
            "duration": 0.33066840625000005,
            "ticks": 12720,
            "durationTicks": 455
          },
          {
            "time": 9.80232,
            "midi": 49,
            "name": "C#3",
            "velocity": 0.7874015748031497,
            "duration": 0.1097383062499997,
            "ticks": 13040,
            "durationTicks": 151
          },
          {
            "time": 9.918599,
            "midi": 37,
            "name": "C#2",
            "velocity": 0.7874015748031497,
            "duration": 0.33066840625000005,
            "ticks": 13200,
            "durationTicks": 455
          },
          {
            "time": 10.267436,
            "midi": 42,
            "name": "F#2",
            "velocity": 0.7874015748031497,
            "duration": 0.5515985062500004,
            "ticks": 13680,
            "durationTicks": 759
          },
          {
            "time": 10.848831,
            "midi": 54,
            "name": "F#3",
            "velocity": 0.7874015748031497,
            "duration": 0.1097383062499997,
            "ticks": 14480,
            "durationTicks": 151
          },
          {
            "time": 10.965110000000001,
            "midi": 56,
            "name": "G#3",
            "velocity": 0.6299212598425197,
            "duration": 0.33066840625000005,
            "ticks": 14640,
            "durationTicks": 455
          },
          {
            "time": 11.197668,
            "midi": 53,
            "name": "F3",
            "velocity": 0.7874015748031497,
            "duration": 0.1097383062499997,
            "ticks": 14960,
            "durationTicks": 151
          },
          {
            "time": 11.313947,
            "midi": 41,
            "name": "F2",
            "velocity": 0.7874015748031497,
            "duration": 0.33066840625000005,
            "ticks": 15120,
            "durationTicks": 455
          },
          {
            "time": 11.662784,
            "midi": 39,
            "name": "D#2",
            "velocity": 0.7874015748031497,
            "duration": 0.5515985062499986,
            "ticks": 15600,
            "durationTicks": 759
          },
          {
            "time": 12.244178999999999,
            "midi": 51,
            "name": "D#3",
            "velocity": 0.7874015748031497,
            "duration": 0.10973830625000147,
            "ticks": 16400,
            "durationTicks": 151
          },
          {
            "time": 12.360458,
            "midi": 54,
            "name": "F#3",
            "velocity": 0.6299212598425197,
            "duration": 0.33066840625000005,
            "ticks": 16560,
            "durationTicks": 455
          },
          {
            "time": 12.593015999999999,
            "midi": 51,
            "name": "D#3",
            "velocity": 0.7874015748031497,
            "duration": 0.10973830625000325,
            "ticks": 16880,
            "durationTicks": 151
          },
          {
            "time": 12.709295000000001,
            "midi": 39,
            "name": "D#2",
            "velocity": 0.7874015748031497,
            "duration": 0.33066840624999827,
            "ticks": 17040,
            "durationTicks": 455
          },
          {
            "time": 13.058132,
            "midi": 32,
            "name": "G#1",
            "velocity": 0.7874015748031497,
            "duration": 0.5515985062499986,
            "ticks": 17520,
            "durationTicks": 759
          },
          {
            "time": 13.639527,
            "midi": 44,
            "name": "G#2",
            "velocity": 0.7874015748031497,
            "duration": 0.10973830625000147,
            "ticks": 18320,
            "durationTicks": 151
          },
          {
            "time": 13.755806,
            "midi": 54,
            "name": "F#3",
            "velocity": 0.6299212598425197,
            "duration": 0.33066840625000005,
            "ticks": 18480,
            "durationTicks": 455
          },
          {
            "time": 13.988363999999999,
            "midi": 44,
            "name": "G#2",
            "velocity": 0.7874015748031497,
            "duration": 0.10973830625000325,
            "ticks": 18800,
            "durationTicks": 151
          },
          {
            "time": 14.104643000000001,
            "midi": 32,
            "name": "G#1",
            "velocity": 0.7874015748031497,
            "duration": 0.33066840624999827,
            "ticks": 18960,
            "durationTicks": 455
          },
          {
            "time": 14.45348,
            "midi": 37,
            "name": "C#2",
            "velocity": 0.7874015748031497,
            "duration": 0.5515985062499986,
            "ticks": 19440,
            "durationTicks": 759
          },
          {
            "time": 15.034875,
            "midi": 49,
            "name": "C#3",
            "velocity": 0.7874015748031497,
            "duration": 0.10973830625000147,
            "ticks": 20240,
            "durationTicks": 151
          },
          {
            "time": 15.151154,
            "midi": 59,
            "name": "B3",
            "velocity": 0.6299212598425197,
            "duration": 0.33066840625000005,
            "ticks": 20400,
            "durationTicks": 455
          },
          {
            "time": 15.383712,
            "midi": 49,
            "name": "C#3",
            "velocity": 0.7874015748031497,
            "duration": 0.10973830625000147,
            "ticks": 20720,
            "durationTicks": 151
          },
          {
            "time": 15.499991,
            "midi": 37,
            "name": "C#2",
            "velocity": 0.7874015748031497,
            "duration": 0.33066840625000005,
            "ticks": 20880,
            "durationTicks": 455
          },
          {
            "time": 15.848828000000001,
            "midi": 42,
            "name": "F#2",
            "velocity": 0.7874015748031497,
            "duration": 0.5515985062499986,
            "ticks": 21360,
            "durationTicks": 759
          },
          {
            "time": 16.430222999999998,
            "midi": 54,
            "name": "F#3",
            "velocity": 0.7874015748031497,
            "duration": 0.10973830625000502,
            "ticks": 22160,
            "durationTicks": 151
          },
          {
            "time": 16.546502,
            "midi": 58,
            "name": "A#3",
            "velocity": 0.6299212598425197,
            "duration": 0.33066840624999827,
            "ticks": 22320,
            "durationTicks": 455
          },
          {
            "time": 16.77906,
            "midi": 54,
            "name": "F#3",
            "velocity": 0.7874015748031497,
            "duration": 0.10973830625000147,
            "ticks": 22640,
            "durationTicks": 151
          },
          {
            "time": 16.895339,
            "midi": 42,
            "name": "F#2",
            "velocity": 0.7874015748031497,
            "duration": 0.33066840624999827,
            "ticks": 22800,
            "durationTicks": 455
          },
          {
            "time": 17.244176,
            "midi": 39,
            "name": "D#2",
            "velocity": 0.7874015748031497,
            "duration": 0.5515985062499986,
            "ticks": 23280,
            "durationTicks": 759
          },
          {
            "time": 17.825571,
            "midi": 51,
            "name": "D#3",
            "velocity": 0.7874015748031497,
            "duration": 0.10973830625000147,
            "ticks": 24080,
            "durationTicks": 151
          },
          {
            "time": 17.94185,
            "midi": 54,
            "name": "F#3",
            "velocity": 0.6299212598425197,
            "duration": 0.3306684062500018,
            "ticks": 24240,
            "durationTicks": 455
          },
          {
            "time": 18.174408,
            "midi": 51,
            "name": "D#3",
            "velocity": 0.7874015748031497,
            "duration": 0.10973830625000147,
            "ticks": 24560,
            "durationTicks": 151
          },
          {
            "time": 18.290687000000002,
            "midi": 39,
            "name": "D#2",
            "velocity": 0.7874015748031497,
            "duration": 0.33066840624999827,
            "ticks": 24720,
            "durationTicks": 455
          },
          {
            "time": 18.639524,
            "midi": 32,
            "name": "G#1",
            "velocity": 0.7874015748031497,
            "duration": 0.5515985062499986,
            "ticks": 25200,
            "durationTicks": 759
          },
          {
            "time": 19.220919,
            "midi": 44,
            "name": "G#2",
            "velocity": 0.7874015748031497,
            "duration": 0.10973830625000147,
            "ticks": 26000,
            "durationTicks": 151
          },
          {
            "time": 19.337198,
            "midi": 54,
            "name": "F#3",
            "velocity": 0.6299212598425197,
            "duration": 0.33066840624999827,
            "ticks": 26160,
            "durationTicks": 455
          },
          {
            "time": 19.569755999999998,
            "midi": 44,
            "name": "G#2",
            "velocity": 0.7874015748031497,
            "duration": 0.10973830625000502,
            "ticks": 26480,
            "durationTicks": 151
          },
          {
            "time": 19.686035,
            "midi": 32,
            "name": "G#1",
            "velocity": 0.7874015748031497,
            "duration": 0.33066840624999827,
            "ticks": 26640,
            "durationTicks": 455
          },
          {
            "time": 20.034872,
            "midi": 37,
            "name": "C#2",
            "velocity": 0.7874015748031497,
            "duration": 0.5515985062499986,
            "ticks": 27120,
            "durationTicks": 759
          },
          {
            "time": 20.616267,
            "midi": 49,
            "name": "C#3",
            "velocity": 0.7874015748031497,
            "duration": 0.10973830625000147,
            "ticks": 27920,
            "durationTicks": 151
          },
          {
            "time": 20.732546,
            "midi": 59,
            "name": "B3",
            "velocity": 0.6299212598425197,
            "duration": 0.3306684062500018,
            "ticks": 28080,
            "durationTicks": 455
          },
          {
            "time": 20.965104,
            "midi": 49,
            "name": "C#3",
            "velocity": 0.7874015748031497,
            "duration": 0.10973830625000147,
            "ticks": 28400,
            "durationTicks": 151
          },
          {
            "time": 21.081383,
            "midi": 37,
            "name": "C#2",
            "velocity": 0.7874015748031497,
            "duration": 0.3306684062500018,
            "ticks": 28560,
            "durationTicks": 455
          },
          {
            "time": 21.430220000000002,
            "midi": 42,
            "name": "F#2",
            "velocity": 0.7874015748031497,
            "duration": 0.5515985062499986,
            "ticks": 29040,
            "durationTicks": 759
          },
          {
            "time": 22.011615,
            "midi": 54,
            "name": "F#3",
            "velocity": 0.7874015748031497,
            "duration": 0.10973830625000147,
            "ticks": 29840,
            "durationTicks": 151
          },
          {
            "time": 22.127894,
            "midi": 56,
            "name": "G#3",
            "velocity": 0.6299212598425197,
            "duration": 0.33066840624999827,
            "ticks": 30000,
            "durationTicks": 455
          },
          {
            "time": 22.360452,
            "midi": 53,
            "name": "F3",
            "velocity": 0.7874015748031497,
            "duration": 0.10973830625000147,
            "ticks": 30320,
            "durationTicks": 151
          },
          {
            "time": 22.476731,
            "midi": 41,
            "name": "F2",
            "velocity": 0.7874015748031497,
            "duration": 0.33066840624999827,
            "ticks": 30480,
            "durationTicks": 455
          },
          {
            "time": 22.825568,
            "midi": 39,
            "name": "D#2",
            "velocity": 0.7874015748031497,
            "duration": 0.5515985062499986,
            "ticks": 30960,
            "durationTicks": 759
          },
          {
            "time": 23.406963,
            "midi": 51,
            "name": "D#3",
            "velocity": 0.7874015748031497,
            "duration": 0.10973830625000147,
            "ticks": 31760,
            "durationTicks": 151
          },
          {
            "time": 23.523242,
            "midi": 54,
            "name": "F#3",
            "velocity": 0.6299212598425197,
            "duration": 0.3306684062500018,
            "ticks": 31920,
            "durationTicks": 455
          },
          {
            "time": 23.7558,
            "midi": 51,
            "name": "D#3",
            "velocity": 0.7874015748031497,
            "duration": 0.10973830625000147,
            "ticks": 32240,
            "durationTicks": 151
          },
          {
            "time": 23.872079,
            "midi": 39,
            "name": "D#2",
            "velocity": 0.7874015748031497,
            "duration": 0.3306684062500018,
            "ticks": 32400,
            "durationTicks": 455
          },
          {
            "time": 24.220916,
            "midi": 32,
            "name": "G#1",
            "velocity": 0.7874015748031497,
            "duration": 0.5515985062500022,
            "ticks": 32880,
            "durationTicks": 759
          },
          {
            "time": 24.802311000000003,
            "midi": 44,
            "name": "G#2",
            "velocity": 0.7874015748031497,
            "duration": 0.10973830624999792,
            "ticks": 33680,
            "durationTicks": 151
          },
          {
            "time": 24.918590000000002,
            "midi": 54,
            "name": "F#3",
            "velocity": 0.6299212598425197,
            "duration": 0.3306684062500018,
            "ticks": 33840,
            "durationTicks": 455
          },
          {
            "time": 25.151148000000003,
            "midi": 44,
            "name": "G#2",
            "velocity": 0.7874015748031497,
            "duration": 0.10973830624999792,
            "ticks": 34160,
            "durationTicks": 151
          },
          {
            "time": 25.267427,
            "midi": 32,
            "name": "G#1",
            "velocity": 0.7874015748031497,
            "duration": 0.3306684062500018,
            "ticks": 34320,
            "durationTicks": 455
          },
          {
            "time": 25.616264,
            "midi": 37,
            "name": "C#2",
            "velocity": 0.7874015748031497,
            "duration": 0.5515985062499986,
            "ticks": 34800,
            "durationTicks": 759
          },
          {
            "time": 26.197659,
            "midi": 49,
            "name": "C#3",
            "velocity": 0.7874015748031497,
            "duration": 0.10973830625000147,
            "ticks": 35600,
            "durationTicks": 151
          },
          {
            "time": 26.313938,
            "midi": 59,
            "name": "B3",
            "velocity": 0.6299212598425197,
            "duration": 0.3306684062500018,
            "ticks": 35760,
            "durationTicks": 455
          },
          {
            "time": 26.546496,
            "midi": 49,
            "name": "C#3",
            "velocity": 0.7874015748031497,
            "duration": 0.10973830625000147,
            "ticks": 36080,
            "durationTicks": 151
          },
          {
            "time": 26.662775,
            "midi": 37,
            "name": "C#2",
            "velocity": 0.7874015748031497,
            "duration": 0.3306684062500018,
            "ticks": 36240,
            "durationTicks": 455
          },
          {
            "time": 27.011612,
            "midi": 42,
            "name": "F#2",
            "velocity": 0.7874015748031497,
            "duration": 0.5515985062499986,
            "ticks": 36720,
            "durationTicks": 759
          },
          {
            "time": 27.593007000000004,
            "midi": 54,
            "name": "F#3",
            "velocity": 0.7874015748031497,
            "duration": 0.10973830624999792,
            "ticks": 37520,
            "durationTicks": 151
          },
          {
            "time": 27.709286000000002,
            "midi": 58,
            "name": "A#3",
            "velocity": 0.6299212598425197,
            "duration": 0.33066840624999827,
            "ticks": 37680,
            "durationTicks": 455
          },
          {
            "time": 27.941844000000003,
            "midi": 52,
            "name": "E3",
            "velocity": 0.7874015748031497,
            "duration": 0.10973830624999792,
            "ticks": 38000,
            "durationTicks": 151
          },
          {
            "time": 28.058123000000002,
            "midi": 40,
            "name": "E2",
            "velocity": 0.7874015748031497,
            "duration": 0.3306684062500018,
            "ticks": 38160,
            "durationTicks": 455
          },
          {
            "time": 28.40696,
            "midi": 35,
            "name": "B1",
            "velocity": 0.7874015748031497,
            "duration": 0.5515985062499986,
            "ticks": 38640,
            "durationTicks": 759
          },
          {
            "time": 28.988355000000002,
            "midi": 47,
            "name": "B2",
            "velocity": 0.7874015748031497,
            "duration": 0.10973830624999792,
            "ticks": 39440,
            "durationTicks": 151
          },
          {
            "time": 29.104634,
            "midi": 59,
            "name": "B3",
            "velocity": 0.6299212598425197,
            "duration": 0.3306684062500018,
            "ticks": 39600,
            "durationTicks": 455
          },
          {
            "time": 29.337192,
            "midi": 47,
            "name": "B2",
            "velocity": 0.7874015748031497,
            "duration": 0.10973830625000147,
            "ticks": 39920,
            "durationTicks": 151
          },
          {
            "time": 29.453471,
            "midi": 35,
            "name": "B1",
            "velocity": 0.7874015748031497,
            "duration": 0.3306684062500018,
            "ticks": 40080,
            "durationTicks": 455
          },
          {
            "time": 29.802308,
            "midi": 37,
            "name": "C#2",
            "velocity": 0.7874015748031497,
            "duration": 0.5515985062499986,
            "ticks": 40560,
            "durationTicks": 759
          },
          {
            "time": 30.383703000000004,
            "midi": 49,
            "name": "C#3",
            "velocity": 0.7874015748031497,
            "duration": 0.10973830624999792,
            "ticks": 41360,
            "durationTicks": 151
          },
          {
            "time": 30.499982,
            "midi": 56,
            "name": "G#3",
            "velocity": 0.6299212598425197,
            "duration": 0.3306684062500018,
            "ticks": 41520,
            "durationTicks": 455
          },
          {
            "time": 30.732540000000004,
            "midi": 49,
            "name": "C#3",
            "velocity": 0.7874015748031497,
            "duration": 0.10973830624999792,
            "ticks": 41840,
            "durationTicks": 151
          },
          {
            "time": 30.848819000000002,
            "midi": 37,
            "name": "C#2",
            "velocity": 0.7874015748031497,
            "duration": 0.33066840624999827,
            "ticks": 42000,
            "durationTicks": 455
          },
          {
            "time": 31.197656000000002,
            "midi": 34,
            "name": "A#1",
            "velocity": 0.7874015748031497,
            "duration": 0.5515985062499986,
            "ticks": 42480,
            "durationTicks": 759
          },
          {
            "time": 31.779051000000003,
            "midi": 46,
            "name": "A#2",
            "velocity": 0.7874015748031497,
            "duration": 0.10973830624999792,
            "ticks": 43280,
            "durationTicks": 151
          },
          {
            "time": 31.89533,
            "midi": 61,
            "name": "C#4",
            "velocity": 0.6299212598425197,
            "duration": 0.33066840624999827,
            "ticks": 43440,
            "durationTicks": 455
          },
          {
            "time": 32.127888,
            "midi": 46,
            "name": "A#2",
            "velocity": 0.7874015748031497,
            "duration": 0.10973830625000147,
            "ticks": 43760,
            "durationTicks": 151
          },
          {
            "time": 32.244167000000004,
            "midi": 34,
            "name": "A#1",
            "velocity": 0.7874015748031497,
            "duration": 0.33066840624999827,
            "ticks": 43920,
            "durationTicks": 455
          },
          {
            "time": 32.593004,
            "midi": 39,
            "name": "D#2",
            "velocity": 0.7874015748031497,
            "duration": 0.5515985062500022,
            "ticks": 44400,
            "durationTicks": 759
          },
          {
            "time": 33.174399,
            "midi": 51,
            "name": "D#3",
            "velocity": 0.7874015748031497,
            "duration": 0.10973830625000147,
            "ticks": 45200,
            "durationTicks": 151
          },
          {
            "time": 33.290678,
            "midi": 58,
            "name": "A#3",
            "velocity": 0.6299212598425197,
            "duration": 0.3306684062500054,
            "ticks": 45360,
            "durationTicks": 455
          },
          {
            "time": 33.523236000000004,
            "midi": 51,
            "name": "D#3",
            "velocity": 0.7874015748031497,
            "duration": 0.10973830624999437,
            "ticks": 45680,
            "durationTicks": 151
          },
          {
            "time": 33.639515,
            "midi": 39,
            "name": "D#2",
            "velocity": 0.7874015748031497,
            "duration": 0.33066840624999827,
            "ticks": 45840,
            "durationTicks": 455
          },
          {
            "time": 33.988352,
            "midi": 32,
            "name": "G#1",
            "velocity": 0.7874015748031497,
            "duration": 0.5515985062500022,
            "ticks": 46320,
            "durationTicks": 759
          },
          {
            "time": 34.569747,
            "midi": 44,
            "name": "G#2",
            "velocity": 0.7874015748031497,
            "duration": 0.10973830625000147,
            "ticks": 47120,
            "durationTicks": 151
          },
          {
            "time": 34.686026,
            "midi": 63,
            "name": "D#4",
            "velocity": 0.6299212598425197,
            "duration": 0.3306684062500054,
            "ticks": 47280,
            "durationTicks": 455
          },
          {
            "time": 34.918584,
            "midi": 44,
            "name": "G#2",
            "velocity": 0.7874015748031497,
            "duration": 0.10973830625000147,
            "ticks": 47600,
            "durationTicks": 151
          },
          {
            "time": 35.034863,
            "midi": 32,
            "name": "G#1",
            "velocity": 0.7874015748031497,
            "duration": 0.33066840624999827,
            "ticks": 47760,
            "durationTicks": 455
          },
          {
            "time": 35.3837,
            "midi": 37,
            "name": "C#2",
            "velocity": 0.7874015748031497,
            "duration": 0.5515985062500022,
            "ticks": 48240,
            "durationTicks": 759
          },
          {
            "time": 35.965095000000005,
            "midi": 49,
            "name": "C#3",
            "velocity": 0.7874015748031497,
            "duration": 0.10973830624999437,
            "ticks": 49040,
            "durationTicks": 151
          },
          {
            "time": 36.081374000000004,
            "midi": 59,
            "name": "B3",
            "velocity": 0.6299212598425197,
            "duration": 0.33066840624999827,
            "ticks": 49200,
            "durationTicks": 455
          },
          {
            "time": 36.313932,
            "midi": 49,
            "name": "C#3",
            "velocity": 0.7874015748031497,
            "duration": 0.10973830625000147,
            "ticks": 49520,
            "durationTicks": 151
          },
          {
            "time": 36.430211,
            "midi": 37,
            "name": "C#2",
            "velocity": 0.7874015748031497,
            "duration": 0.3306684062500054,
            "ticks": 49680,
            "durationTicks": 455
          },
          {
            "time": 36.779048,
            "midi": 42,
            "name": "F#2",
            "velocity": 0.7874015748031497,
            "duration": 0.662063556249997,
            "ticks": 50160,
            "durationTicks": 911
          },
          {
            "time": 37.38951275,
            "midi": 54,
            "name": "F#3",
            "velocity": 0.7874015748031497,
            "duration": 0.33066840624999827,
            "ticks": 51000,
            "durationTicks": 455
          },
          {
            "time": 37.476722,
            "midi": 58,
            "name": "A#3",
            "velocity": 0.6299212598425197,
            "duration": 0.662063556249997,
            "ticks": 51120,
            "durationTicks": 911
          },
          {
            "time": 37.476722,
            "midi": 61,
            "name": "C#4",
            "velocity": 0.6299212598425197,
            "duration": 0.662063556249997,
            "ticks": 51120,
            "durationTicks": 911
          },
          {
            "time": 37.70928,
            "midi": 42,
            "name": "F#2",
            "velocity": 0.7874015748031497,
            "duration": 0.4411334562500002,
            "ticks": 51440,
            "durationTicks": 607
          },
          {
            "time": 38.174396,
            "midi": 42,
            "name": "F#2",
            "velocity": 0.7874015748031497,
            "duration": 0.5515985062499951,
            "ticks": 52080,
            "durationTicks": 759
          },
          {
            "time": 38.755791,
            "midi": 54,
            "name": "F#3",
            "velocity": 0.7874015748031497,
            "duration": 0.10973830625000147,
            "ticks": 52880,
            "durationTicks": 151
          },
          {
            "time": 38.87207,
            "midi": 58,
            "name": "A#3",
            "velocity": 0.6299212598425197,
            "duration": 0.33066840624999827,
            "ticks": 53040,
            "durationTicks": 455
          },
          {
            "time": 39.104628000000005,
            "midi": 54,
            "name": "F#3",
            "velocity": 0.7874015748031497,
            "duration": 0.10973830624999437,
            "ticks": 53360,
            "durationTicks": 151
          },
          {
            "time": 39.220907000000004,
            "midi": 42,
            "name": "F#2",
            "velocity": 0.7874015748031497,
            "duration": 0.33066840624999827,
            "ticks": 53520,
            "durationTicks": 455
          },
          {
            "time": 39.569744,
            "midi": 35,
            "name": "B1",
            "velocity": 0.7874015748031497,
            "duration": 0.5515985062500022,
            "ticks": 54000,
            "durationTicks": 759
          },
          {
            "time": 40.151139,
            "midi": 47,
            "name": "B2",
            "velocity": 0.7874015748031497,
            "duration": 0.10973830625000147,
            "ticks": 54800,
            "durationTicks": 151
          },
          {
            "time": 40.267418,
            "midi": 59,
            "name": "B3",
            "velocity": 0.6299212598425197,
            "duration": 0.3306684062500054,
            "ticks": 54960,
            "durationTicks": 455
          },
          {
            "time": 40.499976000000004,
            "midi": 47,
            "name": "B2",
            "velocity": 0.7874015748031497,
            "duration": 0.10973830625000147,
            "ticks": 55280,
            "durationTicks": 151
          },
          {
            "time": 40.616255,
            "midi": 35,
            "name": "B1",
            "velocity": 0.7874015748031497,
            "duration": 0.33066840624999827,
            "ticks": 55440,
            "durationTicks": 455
          },
          {
            "time": 40.965092,
            "midi": 37,
            "name": "C#2",
            "velocity": 0.7874015748031497,
            "duration": 0.5515985062500022,
            "ticks": 55920,
            "durationTicks": 759
          },
          {
            "time": 41.546487000000006,
            "midi": 49,
            "name": "C#3",
            "velocity": 0.7874015748031497,
            "duration": 0.10973830624999437,
            "ticks": 56720,
            "durationTicks": 151
          },
          {
            "time": 41.662766,
            "midi": 56,
            "name": "G#3",
            "velocity": 0.6299212598425197,
            "duration": 0.3306684062500054,
            "ticks": 56880,
            "durationTicks": 455
          },
          {
            "time": 41.895324,
            "midi": 49,
            "name": "C#3",
            "velocity": 0.7874015748031497,
            "duration": 0.10973830625000147,
            "ticks": 57200,
            "durationTicks": 151
          },
          {
            "time": 42.011603,
            "midi": 37,
            "name": "C#2",
            "velocity": 0.7874015748031497,
            "duration": 0.33066840624999827,
            "ticks": 57360,
            "durationTicks": 455
          },
          {
            "time": 42.360440000000004,
            "midi": 34,
            "name": "A#1",
            "velocity": 0.7874015748031497,
            "duration": 0.5515985062499951,
            "ticks": 57840,
            "durationTicks": 759
          },
          {
            "time": 42.941835000000005,
            "midi": 46,
            "name": "A#2",
            "velocity": 0.7874015748031497,
            "duration": 0.10973830624999437,
            "ticks": 58640,
            "durationTicks": 151
          },
          {
            "time": 43.058114,
            "midi": 61,
            "name": "C#4",
            "velocity": 0.6299212598425197,
            "duration": 0.33066840624999827,
            "ticks": 58800,
            "durationTicks": 455
          },
          {
            "time": 43.290672,
            "midi": 46,
            "name": "A#2",
            "velocity": 0.7874015748031497,
            "duration": 0.10973830625000147,
            "ticks": 59120,
            "durationTicks": 151
          },
          {
            "time": 43.406951,
            "midi": 34,
            "name": "A#1",
            "velocity": 0.7874015748031497,
            "duration": 0.3306684062500054,
            "ticks": 59280,
            "durationTicks": 455
          },
          {
            "time": 43.755788,
            "midi": 39,
            "name": "D#2",
            "velocity": 0.7874015748031497,
            "duration": 0.5515985062499951,
            "ticks": 59760,
            "durationTicks": 759
          },
          {
            "time": 44.337183,
            "midi": 51,
            "name": "D#3",
            "velocity": 0.7874015748031497,
            "duration": 0.10973830625000147,
            "ticks": 60560,
            "durationTicks": 151
          },
          {
            "time": 44.453462,
            "midi": 58,
            "name": "A#3",
            "velocity": 0.6299212598425197,
            "duration": 0.33066840624999827,
            "ticks": 60720,
            "durationTicks": 455
          },
          {
            "time": 44.68602,
            "midi": 51,
            "name": "D#3",
            "velocity": 0.7874015748031497,
            "duration": 0.10973830625000147,
            "ticks": 61040,
            "durationTicks": 151
          },
          {
            "time": 44.802299,
            "midi": 39,
            "name": "D#2",
            "velocity": 0.7874015748031497,
            "duration": 0.3306684062500054,
            "ticks": 61200,
            "durationTicks": 455
          },
          {
            "time": 45.151136,
            "midi": 32,
            "name": "G#1",
            "velocity": 0.7874015748031497,
            "duration": 0.5515985062500022,
            "ticks": 61680,
            "durationTicks": 759
          },
          {
            "time": 45.732530999999994,
            "midi": 44,
            "name": "G#2",
            "velocity": 0.7874015748031497,
            "duration": 0.10973830625000147,
            "ticks": 62480,
            "durationTicks": 151
          },
          {
            "time": 45.84881,
            "midi": 59,
            "name": "B3",
            "velocity": 0.6299212598425197,
            "duration": 0.33066840624999827,
            "ticks": 62640,
            "durationTicks": 455
          },
          {
            "time": 45.84881,
            "midi": 61,
            "name": "C#4",
            "velocity": 0.6299212598425197,
            "duration": 0.33066840624999827,
            "ticks": 62640,
            "durationTicks": 455
          },
          {
            "time": 45.84881,
            "midi": 63,
            "name": "D#4",
            "velocity": 0.6299212598425197,
            "duration": 0.33066840624999827,
            "ticks": 62640,
            "durationTicks": 455
          },
          {
            "time": 46.430205,
            "midi": 59,
            "name": "B3",
            "velocity": 0.6299212598425197,
            "duration": 0.4411334562500002,
            "ticks": 63440,
            "durationTicks": 607
          },
          {
            "time": 46.430205,
            "midi": 61,
            "name": "C#4",
            "velocity": 0.6299212598425197,
            "duration": 0.4411334562500002,
            "ticks": 63440,
            "durationTicks": 607
          },
          {
            "time": 46.430205,
            "midi": 63,
            "name": "D#4",
            "velocity": 0.6299212598425197,
            "duration": 0.4411334562500002,
            "ticks": 63440,
            "durationTicks": 607
          },
          {
            "time": 46.895321,
            "midi": 59,
            "name": "B3",
            "velocity": 0.6299212598425197,
            "duration": 0.33066840624999827,
            "ticks": 64080,
            "durationTicks": 455
          },
          {
            "time": 46.895321,
            "midi": 61,
            "name": "C#4",
            "velocity": 0.6299212598425197,
            "duration": 0.33066840624999827,
            "ticks": 64080,
            "durationTicks": 455
          },
          {
            "time": 46.895321,
            "midi": 63,
            "name": "D#4",
            "velocity": 0.6299212598425197,
            "duration": 0.33066840624999827,
            "ticks": 64080,
            "durationTicks": 455
          },
          {
            "time": 47.476715999999996,
            "midi": 59,
            "name": "B3",
            "velocity": 0.6299212598425197,
            "duration": 0.4411334562500073,
            "ticks": 64880,
            "durationTicks": 607
          },
          {
            "time": 47.476715999999996,
            "midi": 61,
            "name": "C#4",
            "velocity": 0.6299212598425197,
            "duration": 0.4411334562500073,
            "ticks": 64880,
            "durationTicks": 607
          },
          {
            "time": 47.476715999999996,
            "midi": 63,
            "name": "D#4",
            "velocity": 0.6299212598425197,
            "duration": 0.4411334562500073,
            "ticks": 64880,
            "durationTicks": 607
          },
          {
            "time": 48.174389999999995,
            "midi": 56,
            "name": "G#3",
            "velocity": 0.6299212598425197,
            "duration": 0.10973830625000147,
            "ticks": 65840,
            "durationTicks": 151
          },
          {
            "time": 48.174389999999995,
            "midi": 59,
            "name": "B3",
            "velocity": 0.6299212598425197,
            "duration": 0.10973830625000147,
            "ticks": 65840,
            "durationTicks": 151
          },
          {
            "time": 48.174389999999995,
            "midi": 63,
            "name": "D#4",
            "velocity": 0.6299212598425197,
            "duration": 0.10973830625000147,
            "ticks": 65840,
            "durationTicks": 151
          },
          {
            "time": 48.639506000000004,
            "midi": 56,
            "name": "G#3",
            "velocity": 0.6299212598425197,
            "duration": 0.33066840624999116,
            "ticks": 66480,
            "durationTicks": 455
          },
          {
            "time": 48.639506000000004,
            "midi": 59,
            "name": "B3",
            "velocity": 0.6299212598425197,
            "duration": 0.33066840624999116,
            "ticks": 66480,
            "durationTicks": 455
          },
          {
            "time": 48.639506000000004,
            "midi": 63,
            "name": "D#4",
            "velocity": 0.6299212598425197,
            "duration": 0.33066840624999116,
            "ticks": 66480,
            "durationTicks": 455
          },
          {
            "time": 49.220901,
            "midi": 56,
            "name": "G#3",
            "velocity": 0.6299212598425197,
            "duration": 0.10973830625000147,
            "ticks": 67280,
            "durationTicks": 151
          },
          {
            "time": 49.220901,
            "midi": 59,
            "name": "B3",
            "velocity": 0.6299212598425197,
            "duration": 0.10973830625000147,
            "ticks": 67280,
            "durationTicks": 151
          },
          {
            "time": 49.220901,
            "midi": 61,
            "name": "C#4",
            "velocity": 0.6299212598425197,
            "duration": 0.10973830625000147,
            "ticks": 67280,
            "durationTicks": 151
          },
          {
            "time": 49.686017,
            "midi": 56,
            "name": "G#3",
            "velocity": 0.6299212598425197,
            "duration": 0.33066840624999827,
            "ticks": 67920,
            "durationTicks": 455
          },
          {
            "time": 49.686017,
            "midi": 59,
            "name": "B3",
            "velocity": 0.6299212598425197,
            "duration": 0.33066840624999827,
            "ticks": 67920,
            "durationTicks": 455
          },
          {
            "time": 49.686017,
            "midi": 61,
            "name": "C#4",
            "velocity": 0.6299212598425197,
            "duration": 0.33066840624999827,
            "ticks": 67920,
            "durationTicks": 455
          },
          {
            "time": 50.267412,
            "midi": 56,
            "name": "G#3",
            "velocity": 0.6299212598425197,
            "duration": 0.4411334562500002,
            "ticks": 68720,
            "durationTicks": 607
          },
          {
            "time": 50.267412,
            "midi": 59,
            "name": "B3",
            "velocity": 0.6299212598425197,
            "duration": 0.4411334562500002,
            "ticks": 68720,
            "durationTicks": 607
          },
          {
            "time": 50.267412,
            "midi": 61,
            "name": "C#4",
            "velocity": 0.6299212598425197,
            "duration": 0.4411334562500002,
            "ticks": 68720,
            "durationTicks": 607
          },
          {
            "time": 50.383691,
            "midi": 49,
            "name": "C#3",
            "velocity": 0.7874015748031497,
            "duration": 0.33066840624999827,
            "ticks": 68880,
            "durationTicks": 455
          },
          {
            "time": 50.732528,
            "midi": 39,
            "name": "D#2",
            "velocity": 0.7874015748031497,
            "duration": 0.5515985062500022,
            "ticks": 69360,
            "durationTicks": 759
          },
          {
            "time": 51.313922999999996,
            "midi": 51,
            "name": "D#3",
            "velocity": 0.7874015748031497,
            "duration": 0.10973830625000147,
            "ticks": 70160,
            "durationTicks": 151
          },
          {
            "time": 51.430202,
            "midi": 54,
            "name": "F#3",
            "velocity": 0.6299212598425197,
            "duration": 0.33066840624999827,
            "ticks": 70320,
            "durationTicks": 455
          },
          {
            "time": 51.66276,
            "midi": 51,
            "name": "D#3",
            "velocity": 0.7874015748031497,
            "duration": 0.10973830625000147,
            "ticks": 70640,
            "durationTicks": 151
          },
          {
            "time": 51.779039000000004,
            "midi": 39,
            "name": "D#2",
            "velocity": 0.7874015748031497,
            "duration": 0.33066840624999116,
            "ticks": 70800,
            "durationTicks": 455
          },
          {
            "time": 52.127876,
            "midi": 32,
            "name": "G#1",
            "velocity": 0.7874015748031497,
            "duration": 0.5515985062500022,
            "ticks": 71280,
            "durationTicks": 759
          },
          {
            "time": 52.709271,
            "midi": 44,
            "name": "G#2",
            "velocity": 0.7874015748031497,
            "duration": 0.10973830624999437,
            "ticks": 72080,
            "durationTicks": 151
          },
          {
            "time": 52.82555,
            "midi": 54,
            "name": "F#3",
            "velocity": 0.6299212598425197,
            "duration": 0.33066840624999827,
            "ticks": 72240,
            "durationTicks": 455
          },
          {
            "time": 53.058108,
            "midi": 44,
            "name": "G#2",
            "velocity": 0.7874015748031497,
            "duration": 0.10973830625000147,
            "ticks": 72560,
            "durationTicks": 151
          },
          {
            "time": 53.174387,
            "midi": 32,
            "name": "G#1",
            "velocity": 0.7874015748031497,
            "duration": 0.33066840624999827,
            "ticks": 72720,
            "durationTicks": 455
          },
          {
            "time": 53.523224,
            "midi": 37,
            "name": "C#2",
            "velocity": 0.7874015748031497,
            "duration": 0.5515985062500093,
            "ticks": 73200,
            "durationTicks": 759
          },
          {
            "time": 54.104619,
            "midi": 49,
            "name": "C#3",
            "velocity": 0.7874015748031497,
            "duration": 0.10973830624999437,
            "ticks": 74000,
            "durationTicks": 151
          },
          {
            "time": 54.220898,
            "midi": 59,
            "name": "B3",
            "velocity": 0.6299212598425197,
            "duration": 0.33066840624999827,
            "ticks": 74160,
            "durationTicks": 455
          },
          {
            "time": 54.453455999999996,
            "midi": 49,
            "name": "C#3",
            "velocity": 0.7874015748031497,
            "duration": 0.10973830625000147,
            "ticks": 74480,
            "durationTicks": 151
          },
          {
            "time": 54.569735,
            "midi": 37,
            "name": "C#2",
            "velocity": 0.7874015748031497,
            "duration": 0.33066840624999827,
            "ticks": 74640,
            "durationTicks": 455
          },
          {
            "time": 54.918572000000005,
            "midi": 42,
            "name": "F#2",
            "velocity": 0.7874015748031497,
            "duration": 0.5515985062500022,
            "ticks": 75120,
            "durationTicks": 759
          },
          {
            "time": 55.499967,
            "midi": 54,
            "name": "F#3",
            "velocity": 0.7874015748031497,
            "duration": 0.10973830625000147,
            "ticks": 75920,
            "durationTicks": 151
          },
          {
            "time": 55.616246000000004,
            "midi": 56,
            "name": "G#3",
            "velocity": 0.6299212598425197,
            "duration": 0.33066840624999116,
            "ticks": 76080,
            "durationTicks": 455
          },
          {
            "time": 55.848804,
            "midi": 53,
            "name": "F3",
            "velocity": 0.7874015748031497,
            "duration": 0.10973830624999437,
            "ticks": 76400,
            "durationTicks": 151
          },
          {
            "time": 55.965083,
            "midi": 41,
            "name": "F2",
            "velocity": 0.7874015748031497,
            "duration": 0.33066840624999827,
            "ticks": 76560,
            "durationTicks": 455
          },
          {
            "time": 56.31392,
            "midi": 39,
            "name": "D#2",
            "velocity": 0.7874015748031497,
            "duration": 0.5515985062500022,
            "ticks": 77040,
            "durationTicks": 759
          },
          {
            "time": 56.895315,
            "midi": 51,
            "name": "D#3",
            "velocity": 0.7874015748031497,
            "duration": 0.10973830625000147,
            "ticks": 77840,
            "durationTicks": 151
          },
          {
            "time": 57.011594,
            "midi": 54,
            "name": "F#3",
            "velocity": 0.6299212598425197,
            "duration": 0.33066840624999827,
            "ticks": 78000,
            "durationTicks": 455
          },
          {
            "time": 57.244152,
            "midi": 51,
            "name": "D#3",
            "velocity": 0.7874015748031497,
            "duration": 0.10973830624999437,
            "ticks": 78320,
            "durationTicks": 151
          },
          {
            "time": 57.360431,
            "midi": 39,
            "name": "D#2",
            "velocity": 0.7874015748031497,
            "duration": 0.33066840624999827,
            "ticks": 78480,
            "durationTicks": 455
          },
          {
            "time": 57.709268,
            "midi": 32,
            "name": "G#1",
            "velocity": 0.7874015748031497,
            "duration": 0.5515985062500022,
            "ticks": 78960,
            "durationTicks": 759
          },
          {
            "time": 58.290662999999995,
            "midi": 44,
            "name": "G#2",
            "velocity": 0.7874015748031497,
            "duration": 0.10973830625000147,
            "ticks": 79760,
            "durationTicks": 151
          },
          {
            "time": 58.406942,
            "midi": 54,
            "name": "F#3",
            "velocity": 0.6299212598425197,
            "duration": 0.33066840624999827,
            "ticks": 79920,
            "durationTicks": 455
          },
          {
            "time": 58.6395,
            "midi": 44,
            "name": "G#2",
            "velocity": 0.7874015748031497,
            "duration": 0.10973830625000147,
            "ticks": 80240,
            "durationTicks": 151
          },
          {
            "time": 58.755779000000004,
            "midi": 32,
            "name": "G#1",
            "velocity": 0.7874015748031497,
            "duration": 0.33066840624999116,
            "ticks": 80400,
            "durationTicks": 455
          },
          {
            "time": 59.104616,
            "midi": 37,
            "name": "C#2",
            "velocity": 0.7874015748031497,
            "duration": 0.5515985062500022,
            "ticks": 80880,
            "durationTicks": 759
          },
          {
            "time": 59.686011,
            "midi": 49,
            "name": "C#3",
            "velocity": 0.7874015748031497,
            "duration": 0.10973830624999437,
            "ticks": 81680,
            "durationTicks": 151
          },
          {
            "time": 59.80229,
            "midi": 59,
            "name": "B3",
            "velocity": 0.6299212598425197,
            "duration": 0.33066840624999827,
            "ticks": 81840,
            "durationTicks": 455
          },
          {
            "time": 60.034848,
            "midi": 49,
            "name": "C#3",
            "velocity": 0.7874015748031497,
            "duration": 0.10973830625000147,
            "ticks": 82160,
            "durationTicks": 151
          },
          {
            "time": 60.151127,
            "midi": 37,
            "name": "C#2",
            "velocity": 0.7874015748031497,
            "duration": 0.33066840624999827,
            "ticks": 82320,
            "durationTicks": 455
          },
          {
            "time": 60.499964,
            "midi": 42,
            "name": "F#2",
            "velocity": 0.7874015748031497,
            "duration": 0.5515985062500093,
            "ticks": 82800,
            "durationTicks": 759
          },
          {
            "time": 61.081359,
            "midi": 54,
            "name": "F#3",
            "velocity": 0.7874015748031497,
            "duration": 0.10973830625000147,
            "ticks": 83600,
            "durationTicks": 151
          },
          {
            "time": 61.197638000000005,
            "midi": 58,
            "name": "A#3",
            "velocity": 0.6299212598425197,
            "duration": 0.33066840624999116,
            "ticks": 83760,
            "durationTicks": 455
          },
          {
            "time": 61.430195999999995,
            "midi": 54,
            "name": "F#3",
            "velocity": 0.7874015748031497,
            "duration": 0.10973830625000147,
            "ticks": 84080,
            "durationTicks": 151
          },
          {
            "time": 61.546475,
            "midi": 42,
            "name": "F#2",
            "velocity": 0.7874015748031497,
            "duration": 0.33066840624999827,
            "ticks": 84240,
            "durationTicks": 455
          },
          {
            "time": 61.895312000000004,
            "midi": 42,
            "name": "F#2",
            "velocity": 0.7874015748031497,
            "duration": 0.33066840624999116,
            "ticks": 84720,
            "durationTicks": 455
          },
          {
            "time": 61.895312000000004,
            "midi": 54,
            "name": "F#3",
            "velocity": 0.7874015748031497,
            "duration": 0.33066840624999116,
            "ticks": 84720,
            "durationTicks": 455
          },
          {
            "time": 62.476707,
            "midi": 42,
            "name": "F#2",
            "velocity": 0.7874015748031497,
            "duration": 0.10973830625000147,
            "ticks": 85520,
            "durationTicks": 151
          },
          {
            "time": 62.476707,
            "midi": 54,
            "name": "F#3",
            "velocity": 0.7874015748031497,
            "duration": 0.10973830625000147,
            "ticks": 85520,
            "durationTicks": 151
          },
          {
            "time": 62.941823,
            "midi": 42,
            "name": "F#2",
            "velocity": 0.7874015748031497,
            "duration": 0.9934587062500029,
            "ticks": 86160,
            "durationTicks": 1367
          },
          {
            "time": 62.941823,
            "midi": 54,
            "name": "F#3",
            "velocity": 0.7874015748031497,
            "duration": 0.9934587062500029,
            "ticks": 86160,
            "durationTicks": 1367
          }
        ],
        "controlChanges": {}
      }
    ]
  }